<svg xmlns="http://www.w3.org/2000/svg"><defs><font id="ElegantIcons" horiz-adv-x="512" ><font-face units-per-em="512" ascent="480" descent="-32" /><glyph class="hidden" unicode="&#xf000;" d="M0 480 512-32H0z" horiz-adv-x="0" /><glyph unicode="&#x21;" d="M272 32C280.832 32 288 39.168 288 48V361.376l68.672-68.672c6.24-6.24 16.384-6.24 22.624.0 6.24 6.24 6.24 16.384.0 22.624l-96 96C281.824 412.8 280.064 413.952 278.112 414.752c-3.904 1.632-8.32 1.632-12.224.0C263.968 413.984 262.272 412.832 260.8 411.392 260.768 411.36 260.736 411.36 260.672 411.328l-96-96c-6.24-6.24-6.24-16.384.0-22.624 6.24-6.24 16.384-6.24 22.624.0L256 361.376V48C256 39.168 263.168 32 272 32z"  /><glyph unicode='"' d="M272 416C263.168 416 256 408.832 256 4e2v-313.376l-68.672 68.672c-6.24 6.24-16.384 6.24-22.624.0-6.24-6.24-6.24-16.384.0-22.624l96-96c.032-.032.096-.032.128-.096 1.44-1.408 3.168-2.592 5.056-3.36 3.904-1.632 8.32-1.632 12.224.0 1.952.8 3.712 1.984 5.184 3.456l96 96c6.24 6.24 6.24 16.384.0 22.624-6.24 6.24-16.384 6.24-22.624.0L288 86.624V4e2C288 408.832 280.832 416 272 416z"  /><glyph unicode="&#x23;" d="M64 239.936C64 237.888 64.448 235.84 65.248 233.888c.768-1.888 1.92-3.584 3.328-5.024C68.608 228.8 68.64 228.736 68.672 228.672l96-96c6.24-6.24 16.384-6.24 22.624.0 6.24 6.24 6.24 16.384.0 22.624L118.624 224H432C440.832 224 448 231.168 448 240 448 248.832 440.832 256 432 256H118.624l68.672 68.672c6.24 6.24 6.24 16.384.0 22.624-6.24 6.24-16.384 6.24-22.624.0l-96-96C68.64 251.264 68.608 251.168 68.576 251.136 67.168 249.696 66.016 248 65.248 246.112 64.416 244.16 64 242.08 64 240v0C64 239.968 64 239.968 64 239.936z"  /><glyph unicode="&#x24;" d="M64 240C64 231.168 71.168 224 80 224h313.376l-68.672-68.672c-6.24-6.24-6.24-16.384.0-22.624 6.24-6.24 16.384-6.24 22.624.0l96 96c1.472 1.472 2.656 3.232 3.456 5.184C447.552 235.84 448 237.888 448 239.936c0 .032.0.032.0.064v0c0 2.08-.416 4.16-1.248 6.112-.8 1.952-1.984 3.712-3.456 5.184l-96 96c-6.24 6.24-16.384 6.24-22.624.0-6.24-6.24-6.24-16.384.0-22.624L393.376 256H80C71.168 256 64 248.832 64 240z"  /><glyph unicode="&#x25;" d="M64 240C64 231.168 71.168 224 80 224S96 231.168 96 240V361.376l324.672-324.672c6.24-6.24 16.384-6.24 22.624.0 6.24 6.24 6.24 16.384.0 22.624L118.624 384H240C248.832 384 256 391.168 256 4e2 256 408.832 248.832 416 240 416H80C77.92 416 75.84 415.584 73.888 414.752 71.968 413.984 70.272 412.832 68.8 411.392 68.768 411.36 68.736 411.36 68.672 411.328 68.64 411.264 68.608 411.168 68.576 411.136 67.168 409.696 66.016 408 65.248 406.112 64.416 404.16 64 402.08 64 4e2v0V240z"  /><glyph unicode="&#x26;" d="M68.672 36.672c6.24-6.24 16.384-6.24 22.624.0L416 361.376V240C416 231.168 423.168 224 432 224S448 231.168 448 240v160 0c0 2.08-.416 4.16-1.248 6.112-1.632 3.904-4.736 7.04-8.64 8.64C436.16 415.584 434.08 416 432 416H272C263.168 416 256 408.832 256 4e2 256 391.168 263.168 384 272 384h121.376L68.672 59.328C62.432 53.056 62.432 42.944 68.672 36.672z"  /><glyph unicode="'" d="M432 224C423.168 224 416 216.832 416 208V86.624L91.328 411.328c-6.24 6.24-16.384 6.24-22.624.0-6.24-6.24-6.24-16.384.0-22.624L393.376 64H272C263.168 64 256 56.832 256 48 256 39.168 263.168 32 272 32h160c2.08.0 4.16.416 6.112 1.248 3.904 1.632 7.04 4.736 8.64 8.64C447.552 43.84 448 45.888 448 47.936c0 .032.0.032.0.064v160C448 216.832 440.832 224 432 224z"  /><glyph unicode="&#x28;" d="M80 224C71.168 224 64 216.832 64 208V48c0-.032.0-.032.0-.064.0-2.08.416-4.128 1.216-6.048.768-1.888 1.92-3.584 3.328-5.024.064-.064.064-.128.128-.192.032-.032.096-.032.128-.096 1.44-1.408 3.168-2.592 5.056-3.36C75.84 32.416 77.92 32 80 32h160C248.832 32 256 39.168 256 48 256 56.832 248.832 64 240 64H118.624L443.328 388.672c6.24 6.24 6.24 16.384.0 22.624-6.24 6.24-16.384 6.24-22.624.0L96 86.624V208C96 216.832 88.832 224 80 224z"  /><glyph unicode="&#x29;" d="M324.672 388.672c6.24-6.24 16.384-6.24 22.624.0 6.24 6.24 6.24 16.384.0 22.624l-64 64C281.824 476.8 280.064 477.952 278.112 478.752c-3.904 1.632-8.32 1.632-12.224.0C263.968 477.984 262.272 476.832 260.8 475.392 260.768 475.36 260.736 475.36 260.672 475.328l-64-64c-6.24-6.24-6.24-16.384.0-22.624 6.24-6.24 16.384-6.24 22.624.0L256 425.376v-402.752l-36.672 36.672c-6.24 6.24-16.384 6.24-22.624.0-6.24-6.24-6.24-16.384.0-22.624l64-64c.032-.032.096-.032.128-.096 1.44-1.408 3.168-2.592 5.056-3.36 3.904-1.632 8.32-1.632 12.224.0 1.952.8 3.712 1.984 5.184 3.456l64 64c6.24 6.24 6.24 16.384.0 22.624-6.24 6.24-16.384 6.24-22.624.0L288 22.624V425.376L324.672 388.672z"  /><glyph unicode="&#x2a;" d="M292.48-27.488c3.136-3.136 7.264-4.704 11.36-4.672 4.128.0 8.224 1.536 11.36 4.672l61.632 61.632c6.24 6.24 6.24 16.384.0 22.624s-16.384 6.24-22.624.0L320 22.56v281.28c0 8.832-7.168 16-16 16S288 312.672 288 303.84v-281.6l-36.864 36.864c-6.24 6.24-16.384 6.24-22.624.0-6.24-6.24-6.24-16.384.0-22.624L292.48-27.488zM208 127.84c8.832.0 16 7.168 16 16v281.6l36.864-36.864c6.24-6.24 16.384-6.24 22.624.0 6.24 6.24 6.24 16.384.0 22.624L219.52 475.168C216.384 478.304 212.288 479.84 208.16 479.84c-4.128.0-8.224-1.536-11.36-4.672L135.168 413.536c-6.24-6.24-6.24-16.384.0-22.624 6.24-6.24 16.384-6.24 22.624.0L192 425.12v-281.28C192 135.008 199.168 127.84 208 127.84z"  /><glyph unicode="&#x2b;" d="M88.928 103.008c6.24 6.24 6.24 16.384.0 22.624L54.56 160H336c8.832.0 16 7.168 16 16C352 184.832 344.832 192 336 192H54.56l36.704 36.704c6.24 6.24 6.24 16.384.0 22.624-6.24 6.24-16.384 6.24-22.624.0L4.672 187.36C1.536 184.224.0 180.128.0 176c0-4.128 1.536-8.224 4.672-11.36l61.632-61.632C72.576 96.736 82.688 96.736 88.928 103.008zM507.328 283.04l-61.632 61.632c-6.24 6.24-16.384 6.24-22.624.0s-6.24-16.384.0-22.624l34.368-34.368H176C167.168 287.68 160 280.512 160 271.68s7.168-16 16-16h281.44l-36.704-36.704c-6.24-6.24-6.24-16.384.0-22.624 6.24-6.24 16.384-6.24 22.624.0l63.968 63.968C510.464 263.456 512 267.552 512 271.68 512 275.808 510.464 279.904 507.328 283.04z"  /><glyph unicode="&#x2c;" d="M510.752 214.112c-.8 1.952-1.984 3.712-3.456 5.184l-64 64c-6.24 6.24-16.384 6.24-22.624.0-6.24-6.24-6.24-16.384.0-22.624L457.376 224H54.624l36.672 36.672c6.24 6.24 6.24 16.384.0 22.624-6.24 6.24-16.384 6.24-22.624.0l-64-64C4.64 219.264 4.608 219.168 4.576 219.136 3.168 217.696 2.016 216 1.248 214.112.416 212.16.0 210.08.0 208v0c0-.032.0-.032.0-.064C0 205.888.448 203.84 1.248 201.888c.768-1.888 1.92-3.584 3.328-5.024C4.608 196.8 4.64 196.736 4.672 196.672l64-64c6.24-6.24 16.384-6.24 22.624.0 6.24 6.24 6.24 16.384.0 22.624L54.624 192h402.752l-36.672-36.672c-6.24-6.24-6.24-16.384.0-22.624 6.24-6.24 16.384-6.24 22.624.0l64 64c1.472 1.472 2.656 3.232 3.456 5.184C511.552 203.84 512 205.888 512 207.936c0 .032.0.032.0.064v0C512 210.08 511.584 212.16 510.752 214.112z"  /><glyph unicode="&#x2d;" d="M64 240C64 231.168 71.168 224 80 224S96 231.168 96 240V361.376L393.376 64H272C263.168 64 256 56.832 256 48 256 39.168 263.168 32 272 32h160c2.08.0 4.16.416 6.112 1.248 3.904 1.632 7.04 4.736 8.64 8.64C447.552 43.84 448 45.888 448 47.936c0 .032.0.032.0.064v160C448 216.832 440.832 224 432 224S416 216.832 416 208V86.624L118.624 384H240C248.832 384 256 391.168 256 4e2 256 408.832 248.832 416 240 416H80C77.92 416 75.84 415.584 73.888 414.752 71.968 413.984 70.272 412.832 68.8 411.392 68.768 411.36 68.736 411.36 68.672 411.328 68.64 411.264 68.608 411.168 68.576 411.136 67.168 409.696 66.016 408 65.248 406.112 64.416 404.16 64 402.08 64 4e2v0V240z"  /><glyph unicode="&#x2e;" d="M80 224C71.168 224 64 216.832 64 208V48c0-.032.0-.032.0-.064.0-2.08.416-4.128 1.216-6.048.768-1.888 1.92-3.584 3.328-5.024.064-.064.064-.128.128-.192.032-.032.096-.032.128-.096 1.44-1.408 3.168-2.592 5.056-3.36C75.84 32.416 77.92 32 80 32h160C248.832 32 256 39.168 256 48 256 56.832 248.832 64 240 64H118.624L416 361.376V240C416 231.168 423.168 224 432 224S448 231.168 448 240v160 0c0 2.08-.416 4.16-1.248 6.112-1.632 3.904-4.736 7.04-8.64 8.64C436.16 415.584 434.08 416 432 416H272C263.168 416 256 408.832 256 4e2 256 391.168 263.168 384 272 384h121.376L96 86.624V208C96 216.832 88.832 224 80 224z"  /><glyph unicode="&#x2f;" d="M475.328 443.328c-6.24 6.24-16.384 6.24-22.624.0L320 310.624V4e2C320 408.832 312.832 416 304 416S288 408.832 288 4e2V272c0-.032.0-.032.0-.064C288 269.888 288.448 267.84 289.248 265.888c.768-1.888 1.92-3.584 3.328-5.024C292.608 260.8 292.64 260.736 292.672 260.672 292.736 260.64 292.768 260.64 292.8 260.608c1.44-1.408 3.168-2.592 5.056-3.36C299.84 256.416 301.92 256 304 256h128C440.832 256 448 263.168 448 272 448 280.832 440.832 288 432 288h-89.376l132.672 132.672C481.568 426.944 481.568 437.056 475.328 443.328zM36.672 4.672c6.24-6.24 16.384-6.24 22.624.0L192 137.376V48C192 39.168 199.168 32 208 32S224 39.168 224 48v128 0c0 2.08-.416 4.16-1.248 6.112-1.632 3.904-4.736 7.04-8.64 8.64C212.16 191.584 210.08 192 208 192H80C71.168 192 64 184.832 64 176 64 167.168 71.168 160 80 160h89.376l-132.672-132.672C30.432 21.056 30.432 10.944 36.672 4.672z"  /><glyph unicode="&#x30;" d="M478.752 438.112c-1.632 3.904-4.736 7.04-8.64 8.64C468.16 447.584 466.08 448 464 448H336C327.168 448 320 440.832 320 432 320 423.168 327.168 416 336 416h89.376L292.672 283.328c-6.24-6.24-6.24-16.384.0-22.624 6.24-6.24 16.384-6.24 22.624.0L448 393.376V304C448 295.168 455.168 288 464 288S480 295.168 480 304v128 0C480 434.08 479.584 436.16 478.752 438.112zM48 160C39.168 160 32 152.832 32 144V16c0-.032.0-.032.0-.064.0-2.08.416-4.128 1.216-6.048.768-1.888 1.92-3.584 3.328-5.024.064-.064.064-.128.128-.192.032-.032.096-.032.128-.096 1.44-1.408 3.168-2.592 5.056-3.36C43.84.416 45.92.0 48 0h128C184.832.0 192 7.168 192 16 192 24.832 184.832 32 176 32H86.624l132.672 132.672c6.24 6.24 6.24 16.384.0 22.624-6.24 6.24-16.384 6.24-22.624.0L64 54.624V144C64 152.832 56.832 160 48 160z"  /><glyph unicode="&#x31;" d="M510.752 214.112c-.8 1.952-1.984 3.712-3.456 5.184l-64 64c-6.24 6.24-16.384 6.24-22.624.0-6.24-6.24-6.24-16.384.0-22.624L457.376 224H288V393.376l36.672-36.672c6.24-6.24 16.384-6.24 22.624.0 6.24 6.24 6.24 16.384.0 22.624l-64 64C283.264 443.36 283.168 443.392 283.136 443.424 281.696 444.832 280 445.984 278.112 446.752 276.16 447.584 274.08 448 272 448 271.968 448 271.968 448 271.936 448 269.888 448 267.84 447.552 265.888 446.752 264 445.984 262.304 444.832 260.864 443.424 260.8 443.392 260.736 443.36 260.672 443.328l-64-64c-6.24-6.24-6.24-16.384.0-22.624 6.24-6.24 16.384-6.24 22.624.0L256 393.376V224H86.624l36.672 36.672c6.24 6.24 6.24 16.384.0 22.624-6.24 6.24-16.384 6.24-22.624.0l-64-64C36.64 219.264 36.608 219.168 36.576 219.136 35.168 217.696 34.016 216 33.248 214.112 32.416 212.16 32 210.08 32 208c0-.032.0-.032.0-.064C32 205.888 32.448 203.84 33.248 201.888c.768-1.888 1.92-3.584 3.328-5.024C36.608 196.8 36.64 196.736 36.672 196.672l64-64c6.24-6.24 16.384-6.24 22.624.0 6.24 6.24 6.24 16.384.0 22.624L86.624 192H256v-169.376l-36.672 36.672c-6.24 6.24-16.384 6.24-22.624.0-6.24-6.24-6.24-16.384.0-22.624l64-64c1.472-1.472 3.232-2.656 5.184-3.456C267.84-31.552 269.888-32 271.936-32c.032.0.032.0.064.0 2.08.0 4.16.416 6.112 1.248 1.952.8 3.712 1.984 5.184 3.456l64 64c6.24 6.24 6.24 16.384.0 22.624-6.24 6.24-16.384 6.24-22.624.0L288 22.624V192h169.376l-36.672-36.672c-6.24-6.24-6.24-16.384.0-22.624 6.24-6.24 16.384-6.24 22.624.0l64 64c1.472 1.472 2.656 3.232 3.456 5.184C511.552 203.84 512 205.888 512 207.936c0 .032.0.032.0.064C512 210.08 511.584 212.16 510.752 214.112z"  /><glyph unicode="&#x32;" d="M179.488 156.8 272 249.312l92.512-92.512c6.24-6.24 16.384-6.24 22.624.0 6.24 6.24 6.24 16.384.0 22.624L283.36 283.2C280.224 286.336 276.128 287.872 272 287.872c-4.128.0-8.224-1.536-11.36-4.672L156.864 179.424c-6.24-6.24-6.24-16.384.0-22.624C163.104 150.56 173.248 150.56 179.488 156.8z"  /><glyph unicode="&#x33;" d="M364.512 259.2 272 166.688 179.488 259.2c-6.24 6.24-16.384 6.24-22.624.0-6.24-6.24-6.24-16.384.0-22.624L260.64 132.8c3.136-3.136 7.264-4.704 11.36-4.672 4.128.0 8.224 1.536 11.36 4.672l103.776 103.776c6.24 6.24 6.24 16.384.0 22.624C380.896 265.44 370.752 265.44 364.512 259.2z"  /><glyph unicode="&#x34;" d="M196.8 196.64l103.776-103.776c6.24-6.24 16.384-6.24 22.624.0 6.24 6.24 6.24 16.384.0 22.624L230.688 208 323.2 300.512c6.24 6.24 6.24 16.384.0 22.624-6.24 6.24-16.384 6.24-22.624.0L196.8 219.36C193.664 216.224 192.128 212.128 192.128 208 192.128 203.872 193.664 199.776 196.8 196.64z"  /><glyph unicode="&#x35;" d="M220.8 92.864c6.24-6.24 16.384-6.24 22.624.0L347.2 196.64c3.136 3.136 4.704 7.264 4.672 11.36.0 4.128-1.536 8.224-4.672 11.36L243.424 323.136c-6.24 6.24-16.384 6.24-22.624.0-6.24-6.24-6.24-16.384.0-22.624L313.312 208 220.8 115.488C214.56 109.248 214.56 99.104 220.8 92.864z"  /><glyph unicode="&#x36;" d="M375.232 252.608 268.192 347.296c-3.2 3.2-7.392 4.736-11.584 4.672C252.384 352.032 248.192 350.496 244.992 347.296L137.952 252.608c-6.272-6.272-6.272-16.48.0-22.752 6.272-6.272 16.48-6.272 22.752.0l95.872 84.832 95.872-84.832c6.272-6.272 16.48-6.272 22.752.0C381.536 236.128 381.536 246.304 375.232 252.608zM268.192 232.544c-3.2 3.2-7.392 4.736-11.584 4.672C252.384 237.28 248.192 235.744 244.992 232.544l-107.04-94.688c-6.272-6.272-6.272-16.48.0-22.752 6.272-6.272 16.48-6.272 22.752.0l95.872 84.8 95.872-84.8c6.272-6.272 16.48-6.272 22.752.0 6.272 6.272 6.272 16.48.0 22.752L268.192 232.544z"  /><glyph unicode="&#x37;" d="M351.296 218.176l-95.872-84.8-95.872 84.8c-6.272 6.272-16.48 6.272-22.752.0-6.272-6.272-6.272-16.48.0-22.752l107.04-94.688c3.2-3.2 7.392-4.736 11.584-4.672C259.616 96 263.808 97.504 267.008 100.704l107.04 94.688c6.272 6.272 6.272 16.48.0 22.752S357.568 224.448 351.296 218.176zM374.048 332.928c-6.272 6.272-16.48 6.272-22.752.0l-95.872-84.8-95.872 84.8C153.248 339.2 143.04 339.2 136.768 332.928c-6.272-6.272-6.272-16.48.0-22.752l107.04-94.688c3.2-3.2 7.392-4.736 11.584-4.672 4.192-.064 8.416 1.472 11.584 4.672l107.04 94.688C380.352 316.448 380.352 326.624 374.048 332.928z"  /><glyph unicode="&#x38;" d="M132.704 212.992l94.688-107.04c6.272-6.272 16.48-6.272 22.752.0s6.272 16.48.0 22.752l-84.8 95.872 84.8 95.872c6.272 6.272 6.272 16.48.0 22.752s-16.48 6.272-22.752.0L132.704 236.192C129.504 232.992 128 228.8 128.032 224.608 128 220.416 129.504 216.192 132.704 212.992zM364.928 343.232c-6.272 6.272-16.48 6.272-22.752.0L247.456 236.192c-3.2-3.2-4.736-7.392-4.672-11.584C242.752 220.416 244.256 216.192 247.456 212.992l94.688-107.04c6.272-6.272 16.48-6.272 22.752.0s6.272 16.48.0 22.752l-84.8 95.872 84.8 95.872C371.2 326.752 371.2 336.96 364.928 343.232z"  /><glyph unicode="&#x39;" d="M379.296 235.008 284.608 342.048c-6.272 6.272-16.48 6.272-22.752.0s-6.272-16.48.0-22.752l84.8-95.872-84.8-95.872c-6.272-6.272-6.272-16.48.0-22.752s16.48-6.272 22.752.0l94.688 107.04c3.2 3.2 4.736 7.392 4.672 11.584C384 227.616 382.496 231.808 379.296 235.008zM147.072 104.768c6.272-6.272 16.48-6.272 22.752.0l94.688 107.04c3.2 3.2 4.736 7.392 4.672 11.584.064 4.192-1.472 8.416-4.672 11.584L169.856 342.048c-6.272 6.272-16.48 6.272-22.752.0s-6.272-16.48.0-22.752l84.8-95.872-84.8-95.872C140.8 121.248 140.8 111.04 147.072 104.768z"  /><glyph unicode="&#x3a;" d="M283.36 283.2C280.224 286.336 276.128 287.872 272 287.872c-4.128.0-8.224-1.536-11.36-4.672L156.864 179.424c-6.24-6.24-6.24-16.384.0-22.624 6.24-6.24 16.384-6.24 22.624.0L272 249.312l92.512-92.512c6.24-6.24 16.384-6.24 22.624.0 6.24 6.24 6.24 16.384.0 22.624L283.36 283.2zM273.056 445.856c-131.968.0-238.944-106.976-238.944-238.944S141.12-32 273.056-32 512 74.976 512 206.944 405.024 445.856 273.056 445.856zM273.056.0C158.944.0 66.112 92.832 66.112 206.944s92.832 206.944 206.944 206.944S480 321.024 480 206.944 387.168.0 273.056.0z"  /><glyph unicode="&#x3b;" d="M364.512 259.2 272 166.688 179.488 259.2c-6.24 6.24-16.384 6.24-22.624.0-6.24-6.24-6.24-16.384.0-22.624L260.64 132.8c3.136-3.136 7.264-4.704 11.36-4.672 4.128.0 8.224 1.536 11.36 4.672l103.776 103.776c6.24 6.24 6.24 16.384.0 22.624C380.896 265.44 370.752 265.44 364.512 259.2zM273.152 445.728c-131.904.0-238.848-106.944-238.848-238.848C34.272 74.944 141.216-32 273.152-32 405.056-32 512 74.944 512 206.848 512 338.784 405.056 445.728 273.152 445.728zM273.152.0c-114.048.0-206.848 92.8-206.848 206.848.0 114.048 92.8 206.848 206.848 206.848C387.2 413.728 480 320.928 480 206.848 480 92.8 387.2.0 273.152.0z"  /><glyph unicode="&#x3c;" d="M323.2 323.136c-6.24 6.24-16.384 6.24-22.624.0L196.8 219.36C193.664 216.224 192.128 212.128 192.128 208c0-4.128 1.536-8.224 4.672-11.36l103.776-103.776c6.24-6.24 16.384-6.24 22.624.0 6.24 6.24 6.24 16.384.0 22.624L230.688 208 323.2 300.512C329.44 306.752 329.44 316.896 323.2 323.136zM272 448C139.456 448 32 340.544 32 208S139.456-32 272-32 512 75.456 512 208 404.544 448 272 448zM272 0C157.312.0 64 93.312 64 208S157.312 416 272 416 480 322.688 480 208 386.688.0 272 0z"  /><glyph unicode="&#x3d;" d="M347.2 219.36 243.424 323.136c-6.24 6.24-16.384 6.24-22.624.0-6.24-6.24-6.24-16.384.0-22.624L313.312 208 220.8 115.488c-6.24-6.24-6.24-16.384.0-22.624 6.24-6.24 16.384-6.24 22.624.0L347.2 196.64c3.136 3.136 4.704 7.264 4.672 11.36C351.872 212.128 350.336 216.224 347.2 219.36zM273.152 445.696c-131.904.0-238.848-106.944-238.848-238.848S141.248-32 273.152-32 512 74.944 512 206.848 405.056 445.696 273.152 445.696zM273.152.0c-114.048.0-206.848 92.8-206.848 206.848s92.8 206.848 206.848 206.848S480 320.896 480 206.848 387.2.0 273.152.0z"  /><glyph unicode="&#x3e;" d="M284.192 331.296c-3.2 3.2-7.392 4.736-11.584 4.672C268.384 336.032 264.192 334.496 260.992 331.296L153.952 236.608c-6.272-6.272-6.272-16.48.0-22.752 6.272-6.272 16.48-6.272 22.752.0l95.872 84.832 95.872-84.832c6.272-6.272 16.48-6.272 22.752.0 6.272 6.272 6.272 16.48.0 22.752L284.192 331.296zM284.192 216.544c-3.2 3.2-7.392 4.736-11.584 4.672C268.384 221.28 264.192 219.744 260.992 216.544l-107.04-94.688c-6.272-6.272-6.272-16.48.0-22.752 6.272-6.272 16.48-6.272 22.752.0l95.872 84.8 95.872-84.8c6.272-6.272 16.48-6.272 22.752.0 6.272 6.272 6.272 16.48.0 22.752L284.192 216.544zM273.152 445.696c-131.904.0-238.848-106.944-238.848-238.848S141.248-32 273.152-32 512 74.944 512 206.848 405.056 445.696 273.152 445.696zM273.152.0c-114.048.0-206.848 92.8-206.848 206.848s92.8 206.848 206.848 206.848S480 320.896 480 206.848 387.2.0 273.152.0z"  /><glyph unicode="&#x3f;" d="M367.296 202.176l-95.872-84.8-95.872 84.8c-6.272 6.272-16.48 6.272-22.752.0-6.272-6.272-6.272-16.48.0-22.752l107.04-94.688c3.2-3.2 7.392-4.736 11.584-4.672 4.192-.064 8.416 1.472 11.584 4.672l107.04 94.688c6.272 6.272 6.272 16.48.0 22.752S373.568 208.448 367.296 202.176zM367.296 316.928l-95.872-84.8-95.872 84.8C169.248 323.2 159.04 323.2 152.768 316.928c-6.272-6.272-6.272-16.48.0-22.752l107.04-94.688c3.2-3.2 7.392-4.736 11.584-4.672 4.192-.064 8.416 1.472 11.584 4.672l107.04 94.688c6.272 6.272 6.272 16.48.0 22.752S373.568 323.2 367.296 316.928zM273.152 445.696c-131.904.0-238.848-106.944-238.848-238.848S141.248-32 273.152-32 512 74.944 512 206.848 405.056 445.696 273.152 445.696zM273.152.0c-114.048.0-206.848 92.8-206.848 206.848s92.8 206.848 206.848 206.848S480 320.896 480 206.848 387.2.0 273.152.0z"  /><glyph unicode="&#x40;" d="M181.344 208.608l84.8 95.872c6.272 6.272 6.272 16.48.0 22.752s-16.48 6.272-22.752.0L148.704 220.192c-3.2-3.2-4.736-7.392-4.672-11.584C144 204.416 145.504 200.192 148.704 196.992l94.688-107.04c6.272-6.272 16.48-6.272 22.752.0s6.272 16.48.0 22.752L181.344 208.608zM380.928 327.232c-6.272 6.272-16.48 6.272-22.752.0L263.456 220.192c-3.2-3.2-4.736-7.392-4.672-11.584C258.752 204.416 260.256 200.192 263.456 196.992l94.688-107.04c6.272-6.272 16.48-6.272 22.752.0s6.272 16.48.0 22.752l-84.8 95.872 84.8 95.872C387.2 310.752 387.2 320.96 380.928 327.232zM272 448C139.456 448 32 340.544 32 208S139.456-32 272-32 512 75.456 512 208 404.544 448 272 448zM272 0C157.312.0 64 93.312 64 208S157.312 416 272 416 480 322.688 480 208 386.688.0 272 0z"  /><glyph unicode="&#x41;" d="M395.296 219.008 300.608 326.048c-6.272 6.272-16.48 6.272-22.752.0s-6.272-16.48.0-22.752l84.8-95.872-84.8-95.872c-6.272-6.272-6.272-16.48.0-22.752s16.48-6.272 22.752.0l94.688 107.04c3.2 3.2 4.736 7.392 4.672 11.584C4e2 211.616 398.496 215.808 395.296 219.008zM285.216 207.424c.064 4.192-1.472 8.416-4.672 11.584L185.856 326.048c-6.272 6.272-16.48 6.272-22.752.0s-6.272-16.48.0-22.752l84.8-95.872-84.8-95.872c-6.272-6.272-6.272-16.48.0-22.752s16.48-6.272 22.752.0l94.688 107.04C283.744 199.008 285.28 203.2 285.216 207.424zM272 448C139.456 448 32 340.544 32 208S139.456-32 272-32 512 75.456 512 208 404.544 448 272 448zM272 0C157.312.0 64 93.312 64 208S157.312 416 272 416 480 322.688 480 208 386.688.0 272 0z"  /><glyph unicode="&#x42;" d="M143.968 160h223.456c4.576.0 8.64 2.208 11.52 5.632l.064-.064c6.24 6.944 6.24 18.208.0 25.152L267.04 314.784c-6.24 6.944-16.352 6.944-22.56.0-.16-.192-.224-.448-.384-.64L132.352 190.72c-6.24-6.944-6.24-18.208.0-25.152C132.416 165.504 132.48 165.472 132.544 165.408 135.456 162.08 139.456 160 143.968 160z"  /><glyph unicode="&#x43;" d="M266.912 165.216c.16.192.224.448.384.64L379.008 289.28c6.24 6.944 6.24 18.208.0 25.152-.064.064-.128.096-.192.128C375.936 317.92 371.904 320 367.424 320H143.968c-4.576.0-8.64-2.208-11.552-5.632L132.352 314.432c-6.24-6.944-6.24-18.208.0-25.152l111.968-124.064C250.56 158.272 260.672 158.272 266.912 165.216z"  /><glyph unicode="&#x44;" d="M289.28 347.648 165.216 235.648c-6.944-6.24-6.944-16.352.0-22.56.192-.16.448-.224.64-.384L289.28 100.992c6.944-6.24 18.208-6.24 25.152.0.064.064.064.128.128.192C317.92 104.064 320 108.096 320 112.576V336.032c0 4.576-2.208 8.64-5.632 11.52l.064.064C307.488 353.856 296.224 353.856 289.28 347.648z"  /><glyph unicode="&#x45;" d="M222.304 100.384 344.736 212.64c6.848 6.24 6.848 16.384.0 22.624-.192.16-.448.224-.64.384l-121.792 112c-6.848 6.24-17.984 6.24-24.832.0C197.44 347.584 197.408 347.488 197.344 347.424 194.08 344.544 192 340.512 192 336V112c0-4.576 2.176-8.64 5.536-11.552l-.064-.064C204.352 94.112 215.456 94.112 222.304 100.384z"  /><glyph unicode="&#x46;" d="M272 448C139.456 448 32 340.544 32 208S139.456-32 272-32 512 75.456 512 208 404.544 448 272 448zM272 0C157.312.0 64 93.312 64 208S157.312 416 272 416 480 322.688 480 208 386.688.0 272 0zM281.6 282.784c-5.44 6.944-14.304 6.944-19.744.0-.16-.192-.192-.448-.352-.64L163.776 158.72c-5.44-6.944-5.44-18.208.0-25.152.032-.064.128-.064.16-.128C166.464 130.08 169.984 128 173.92 128h195.52c4 0 7.552 2.208 10.08 5.632l.064-.064c5.44 6.944 5.44 18.208.0 25.152L281.6 282.784z"  /><glyph unicode="&#x47;" d="M272 448C139.456 448 32 340.544 32 208S139.456-32 272-32 512 75.456 512 208 404.544 448 272 448zM272 0C157.312.0 64 93.312 64 208S157.312 416 272 416 480 322.688 480 208 386.688.0 272 0zM379.744 250.592C377.216 253.92 373.696 256 369.76 256h-195.52C170.24 256 166.688 253.792 164.16 250.368L164.096 250.432c-5.44-6.944-5.44-18.208.0-25.152l97.984-124.064c5.44-6.944 14.304-6.944 19.744.0.16.192.192.448.352.64l97.76 123.424c5.44 6.944 5.44 18.208.0 25.152C379.872 250.496 379.808 250.528 379.744 250.592z"  /><glyph unicode="&#x48;" d="M272 448C139.456 448 32 340.544 32 208S139.456-32 272-32 512 75.456 512 208 404.544 448 272 448zM272 0C157.312.0 64 93.312 64 208S157.312 416 272 416 480 322.688 480 208 386.688.0 272 0zM314.432 316.224c-6.944 5.44-18.208 5.44-25.152.0L165.216 218.24c-6.944-5.44-6.944-14.304.0-19.744.192-.16.448-.192.64-.352l123.424-97.76c6.944-5.44 18.208-5.44 25.152.0.064.032.064.128.128.16C317.92 103.104 320 106.624 320 110.56v195.52C320 310.08 317.792 313.632 314.368 316.16L314.432 316.224z"  /><glyph unicode="&#x49;" d="M272 448C139.456 448 32 340.544 32 208S139.456-32 272-32 512 75.456 512 208 404.544 448 272 448zM272 0C157.312.0 64 93.312 64 208S157.312 416 272 416 480 322.688 480 208 386.688.0 272 0zM378.144 218.464 254.72 316.224c-6.944 5.44-18.208 5.44-25.152.0C229.504 316.16 229.472 316.096 229.408 316.064 226.08 313.536 224 310.016 224 306.08v-195.52c0-4 2.208-7.552 5.632-10.08l-.064-.064c6.944-5.44 18.208-5.44 25.152.0L378.784 198.4c6.944 5.44 6.944 14.304.0 19.744C378.592 218.304 378.336 218.336 378.144 218.464z"  /><glyph unicode="&#x4a;" d="M68.672 228.672l96-96c6.24-6.24 16.384-6.24 22.624.0 6.24 6.24 6.24 16.384.0 22.624L118.624 224H352c64 0 96-59.072 96-112 0-8.832 7.168-16 16-16s16 7.168 16 16C480 182.592 448 256 352 256H118.624l68.672 68.672c6.24 6.24 6.24 16.384.0 22.624-6.24 6.24-16.384 6.24-22.624.0l-96-96C62.432 245.056 62.432 234.944 68.672 228.672z"  /><glyph unicode="&#x4b;" d="M144 192h256C408.832 192 416 199.168 416 208 416 216.832 408.832 224 4e2 224H144C135.168 224 128 216.832 128 208 128 199.168 135.168 192 144 192z"  /><glyph unicode="&#x4c;" d="M144 192H256V80C256 71.168 263.168 64 272 64S288 71.168 288 80V192h112C408.832 192 416 199.168 416 208 416 216.832 408.832 224 4e2 224H288V336C288 344.832 280.832 352 272 352S256 344.832 256 336V224H144C135.168 224 128 216.832 128 208 128 199.168 135.168 192 144 192z"  /><glyph unicode="&#x4d;" d="M160.8 96.8c6.24-6.24 16.384-6.24 22.624.0L272 185.376l88.576-88.576c6.24-6.24 16.384-6.24 22.624.0 6.24 6.24 6.24 16.384.0 22.624L294.624 208l88.576 88.576c6.24 6.24 6.24 16.384.0 22.624-6.24 6.24-16.384 6.24-22.624.0L272 230.624 183.424 319.2c-6.24 6.24-16.384 6.24-22.624.0-6.24-6.24-6.24-16.384.0-22.624L249.376 208 160.8 119.424C154.56 113.184 154.56 103.04 160.8 96.8z"  /><glyph unicode="&#x4e;" d="M220.608 70.592c.64-.512 1.024-1.216 1.696-1.696.96-.64 2.048-.768 3.072-1.216 1.216-.576 2.4-1.12 3.68-1.472 1.248-.32 2.464-.48 3.744-.576 1.824-.192 3.584-.192 5.376.064.736.128 1.44.32 2.176.512 2.208.544 4.256 1.408 6.272 2.624.352.224.64.48.992.704 1.312.896 2.72 1.568 3.84 2.784.8.864 1.152 1.984 1.792 2.944.032.032.096.064.096.096l190.688 305.632c6.784 10.336 3.872 24.224-6.496 31.008s-24.224 3.872-31.008-6.496l-176.128-282.272L132.992 217.984C123.904 226.4 109.76 225.856 101.344 216.768 92.96 207.68 93.504 193.504 102.592 185.12L219.776 71.104C220 70.88 220.32 70.816 220.608 70.592z"  /><glyph unicode="&#x4f;" d="M272 448C139.456 448 32 340.544 32 208S139.456-32 272-32 512 75.456 512 208 404.544 448 272 448zM272 0C157.312.0 64 93.312 64 208S157.312 416 272 416 480 322.688 480 208 386.688.0 272 0zM4e2 224H144C135.168 224 128 216.832 128 208 128 199.168 135.168 192 144 192h256C408.832 192 416 199.168 416 208 416 216.832 408.832 224 4e2 224z"  /><glyph unicode="&#x50;" d="M272 448C139.456 448 32 340.544 32 208S139.456-32 272-32 512 75.456 512 208 404.544 448 272 448zM272 0C157.312.0 64 93.312 64 208S157.312 416 272 416 480 322.688 480 208 386.688.0 272 0zM4e2 224H288V336C288 344.832 280.832 352 272 352S256 344.832 256 336V224H144C135.168 224 128 216.832 128 208 128 199.168 135.168 192 144 192H256V80C256 71.168 263.168 64 272 64S288 71.168 288 80V192h112C408.832 192 416 199.168 416 208 416 216.832 408.832 224 4e2 224z"  /><glyph unicode="&#x51;" d="M272 448C139.456 448 32 340.544 32 208S139.456-32 272-32 512 75.456 512 208 404.544 448 272 448zM272 0C157.312.0 64 93.312 64 208S157.312 416 272 416 480 322.688 480 208 386.688.0 272 0zM360.576 319.2 272.608 231.232 193.728 319.2c-6.24 6.24-16.384 6.24-22.624.0-6.24-6.24-6.24-16.384.0-22.624l78.912-87.968-89.184-89.184c-6.24-6.24-6.24-16.384.0-22.624 6.24-6.24 16.384-6.24 22.624.0l87.968 87.968 78.912-87.968c6.24-6.24 16.384-6.24 22.624.0s6.24 16.384.0 22.624L294.016 207.392l89.184 89.184c6.24 6.24 6.24 16.384.0 22.624C376.96 325.44 366.816 325.44 360.576 319.2z"  /><glyph unicode="&#x52;" d="M257.344 480c-141.376.0-256-114.624-256-256s114.624-256 256-256 256 114.624 256 256S398.72 480 257.344 480zm0-480c-123.52.0-224 100.48-224 224s100.48 224 224 224 224-100.48 224-224S380.832.0 257.344.0zM369.472 325.824c-10.336 6.784-24.224 3.872-31.008-6.496L230.432 154.24 178.784 202.048C169.696 210.432 155.52 209.888 147.104 200.8S139.264 177.568 148.352 169.152l71.392-66.048c.256-.224.576-.288.832-.512.64-.512 1.024-1.216 1.696-1.696.96-.64 2.048-.768 3.072-1.216 1.216-.576 2.4-1.12 3.68-1.472 1.248-.32 2.464-.48 3.744-.576 1.824-.192 3.584-.192 5.376.064.736.128 1.44.32 2.176.512 2.208.544 4.256 1.408 6.272 2.624.352.224.64.48.992.704 1.312.896 2.72 1.568 3.84 2.784.8.864 1.152 1.984 1.792 2.944.032.032.096.064.096.096l122.624 187.424C382.72 305.152 379.808 319.04 369.472 325.824z"  /><glyph unicode="&#x53;" d="M304 480C189.12 480 96 386.88 96 272c0-49.44 17.312-94.752 46.112-130.464l-135.584-135.584c-8.672-8.672-8.672-22.752.0-31.424 8.672-8.672 22.752-8.672 31.424.0l135.584 135.584C209.248 81.312 254.56 64 304 64c114.88.0 208 93.12 208 208S418.88 480 304 480zm0-384C206.944 96 128 174.944 128 272S206.944 448 304 448 480 369.056 480 272 401.056 96 304 96zm96 192H208C199.168 288 192 280.832 192 272 192 263.168 199.168 256 208 256h192C408.832 256 416 263.168 416 272 416 280.832 408.832 288 4e2 288z"  /><glyph unicode="&#x54;" d="M304 480C189.12 480 96 386.88 96 272c0-49.44 17.312-94.752 46.112-130.464l-135.584-135.584c-8.672-8.672-8.672-22.752.0-31.424 8.672-8.672 22.752-8.672 31.424.0l135.584 135.584C209.248 81.312 254.56 64 304 64c114.88.0 208 93.12 208 208S418.88 480 304 480zm0-384C206.944 96 128 174.944 128 272S206.944 448 304 448 480 369.056 480 272 401.056 96 304 96zm96 192H320v80C320 376.832 312.832 384 304 384 295.168 384 288 376.832 288 368V288H208C199.168 288 192 280.832 192 272 192 263.168 199.168 256 208 256h80v-80C288 167.168 295.168 160 304 160 312.832 160 320 167.168 320 176v80h80C408.832 256 416 263.168 416 272 416 280.832 408.832 288 4e2 288z"  /><glyph unicode="&#x55;" d="M304 480C189.12 480 96 386.88 96 272c0-49.44 17.344-94.816 46.144-130.528l-137.472-137.472c-8.64-8.64-8.64-22.688.0-31.328 8.64-8.64 22.688-8.64 31.328.0l137.472 137.472C209.184 81.344 254.56 64 304 64c114.88.0 208 93.12 208 208S418.88 480 304 480zm0-384C206.944 96 128 174.944 128 272S206.944 448 304 448 480 369.056 480 272 401.056 96 304 96z"  /><glyph unicode="&#x56;" d="M416 416H96C78.336 416 64 401.664 64 384V64c0-17.664 14.336-32 32-32h320c17.664.0 32 14.336 32 32V384C448 401.664 433.664 416 416 416zm0-352H96V384h320V64z"  /><glyph unicode="&#x57;" d="M416 416H96C78.336 416 64 401.664 64 384V64c0-17.664 14.336-32 32-32h320c17.664.0 32 14.336 32 32V384C448 401.664 433.664 416 416 416zm0-352H96V384h320V64zM192 128h128c17.664.0 32 14.336 32 32V288c0 17.664-14.336 32-32 32H192C174.336 320 160 305.664 160 288V160C160 142.336 174.336 128 192 128z"  /><glyph unicode="&#x58;" d="M128 320V96c0-17.664 14.336-32 32-32h224c17.664.0 32 14.336 32 32V320c0 17.664-14.336 32-32 32H160C142.336 352 128 337.664 128 320zM384 96H160V320h224V96zM208 192h128C344.832 192 352 199.168 352 208 352 216.832 344.832 224 336 224H208C199.168 224 192 216.832 192 208 192 199.168 199.168 192 208 192z"  /><glyph unicode="&#x59;" d="M128 320V96c0-17.664 14.336-32 32-32h224c17.664.0 32 14.336 32 32V320c0 17.664-14.336 32-32 32H160C142.336 352 128 337.664 128 320zM384 96H160V320h224V96zM208 192h48v-48C256 135.168 263.168 128 272 128S288 135.168 288 144v48h48C344.832 192 352 199.168 352 208 352 216.832 344.832 224 336 224H288v48C288 280.832 280.832 288 272 288S256 280.832 256 272V224H208C199.168 224 192 216.832 192 208 192 199.168 199.168 192 208 192z"  /><glyph unicode="&#x5a;" d="M416 64H96V384h236.032L352 416H96C78.336 416 64 401.664 64 384V64c0-17.664 14.336-32 32-32h320c17.664.0 32 14.336 32 32V275.296L416 224V64zM469.856 444.352C466.08 446.816 461.824 448 457.632 448c-7.296.0-14.464-3.584-18.752-10.144L264.928 186.912l-67.296 76.8C188.512 272.128 174.368 271.584 165.952 262.496S158.112 239.232 167.2 230.848l80.896-92.32c.512-.832 1.312-1.472 1.952-2.24l2.048-2.336c.256-.224.576-.288.832-.512.64-.512 1.024-1.216 1.696-1.696 1.376-.896 2.88-1.472 4.384-2.016.352-.128.64-.352.992-.448 2.24-.736 4.576-1.184 6.88-1.184.096.0.192.064.288.064 6.08-.032 12.128 2.208 16.576 7.008.832.896 1.152 1.984 1.824 2.976.032.032.064.064.096.096l190.688 275.104C483.104 423.68 480.224 437.568 469.856 444.352z"  /><glyph unicode="&#x5b;" d="M256 416C149.952 416 64 330.048 64 224S149.952 32 256 32s192 85.952 192 192-85.952 192-192 192zm0-352c-88.224.0-160 71.776-160 160s71.776 160 160 160 160-71.776 160-160S344.224 64 256 64z"  /><glyph unicode="&#x5c;" d="M256 416C149.952 416 64 330.048 64 224S149.952 32 256 32s192 85.952 192 192-85.952 192-192 192zm0-352c-88.224.0-160 71.776-160 160s71.776 160 160 160 160-71.776 160-160S344.224 64 256 64zM160 224a96 96 1260 1 1 192 0 96 96 1260 1 1-192 0z"  /><glyph unicode="&#x5d;" d="M256 480C114.624 480 0 365.376.0 224S114.624-32 256-32 512 82.624 512 224 397.376 480 256 480zM256 0c-123.52.0-224 100.48-224 224s100.48 224 224 224 224-100.48 224-224S379.52.0 256 0zm64 320H192C174.336 320 160 305.664 160 288V160c0-17.664 14.336-32 32-32h128c17.664.0 32 14.336 32 32V288C352 305.664 337.664 320 320 320z"  /><glyph unicode="&#x5e;" d="M320 128c17.664.0 32 14.336 32 32V288c0 17.664-14.336 32-32 32H192C174.336 320 160 305.664 160 288V160c0-17.664 14.336-32 32-32H320z"  /><glyph unicode="&#x5f;" d="M256-32c141.376.0 256 114.624 256 256S397.376 480 256 480 0 365.376.0 224 114.624-32 256-32zm0 480c123.52.0 224-100.48 224-224S379.52.0 256 0 32 100.48 32 224 132.48 448 256 448zM192 128c17.664.0 32 14.336 32 32V288c0 17.664-14.336 32-32 32S160 305.664 160 288V160C160 142.336 174.336 128 192 128zm128 0c17.664.0 32 14.336 32 32V288c0 17.664-14.336 32-32 32S288 305.664 288 288V160C288 142.336 302.336 128 320 128z"  /><glyph unicode="&#x60;" d="M192 320C174.336 320 160 305.664 160 288V160c0-17.664 14.336-32 32-32s32 14.336 32 32V288C224 305.664 209.664 320 192 320zm96-160c0-17.664 14.336-32 32-32s32 14.336 32 32V288c0 17.664-14.336 32-32 32S288 305.664 288 288V160z"  /><glyph unicode="&#x61;" d="M112 224h288C408.832 224 416 231.168 416 240 416 248.832 408.832 256 4e2 256H112C103.168 256 96 248.832 96 240 96 231.168 103.168 224 112 224zm0 96h288C408.832 320 416 327.168 416 336 416 344.832 408.832 352 4e2 352H112C103.168 352 96 344.832 96 336 96 327.168 103.168 320 112 320zm0-192h288c8.832.0 16 7.168 16 16 0 8.832-7.168 16-16 16H112C103.168 160 96 152.832 96 144 96 135.168 103.168 128 112 128z"  /><glyph unicode="&#x62;" d="M480 448H64C46.336 448 32 433.664 32 416V0c0-17.664 14.336-32 32-32h416c17.664.0 32 14.336 32 32V416C512 433.664 497.664 448 480 448zM480 0H64V416h416V0zM144 192h256C408.832 192 416 199.168 416 208 416 216.832 408.832 224 4e2 224H144C135.168 224 128 216.832 128 208 128 199.168 135.168 192 144 192zm0 96h256C408.832 288 416 295.168 416 304 416 312.832 408.832 320 4e2 320H144C135.168 320 128 312.832 128 304 128 295.168 135.168 288 144 288zm0-192h256c8.832.0 16 7.168 16 16 0 8.832-7.168 16-16 16H144C135.168 128 128 120.832 128 112 128 103.168 135.168 96 144 96z"  /><glyph unicode="&#x63;" d="M272 448C139.456 448 32 340.544 32 208S139.456-32 272-32 512 75.456 512 208 404.544 448 272 448zM272 0C157.312.0 64 93.312 64 208S157.312 416 272 416 480 322.688 480 208 386.688.0 272 0zM4e2 224H144C135.168 224 128 216.832 128 208 128 199.168 135.168 192 144 192h256C408.832 192 416 199.168 416 208 416 216.832 408.832 224 4e2 224zm0 96H144C135.168 320 128 312.832 128 304 128 295.168 135.168 288 144 288h256C408.832 288 416 295.168 416 304 416 312.832 408.832 320 4e2 320zm0-192H144C135.168 128 128 120.832 128 112 128 103.168 135.168 96 144 96h256c8.832.0 16 7.168 16 16C416 120.832 408.832 128 4e2 128z"  /><glyph unicode="&#x64;" d="M176 224h256C440.832 224 448 231.168 448 240 448 248.832 440.832 256 432 256H176C167.168 256 160 248.832 160 240 160 231.168 167.168 224 176 224zm0 128h256C440.832 352 448 359.168 448 368 448 376.832 440.832 384 432 384H176C167.168 384 160 376.832 160 368 160 359.168 167.168 352 176 352zm0-256h256c8.832.0 16 7.168 16 16 0 8.832-7.168 16-16 16H176C167.168 128 160 120.832 160 112 160 103.168 167.168 96 176 96zM64 368a16 16 1260 1 1 32 0 16 16 1260 1 1-32 0zm0-128a16 16 1260 1 1 32 0 16 16 1260 1 1-32 0zm0-128a16 16 1260 1 1 32 0 16 16 1260 1 1-32 0z"  /><glyph unicode="&#x65;" d="M432 256H176C167.168 256 160 248.832 160 240 160 231.168 167.168 224 176 224h256C440.832 224 448 231.168 448 240 448 248.832 440.832 256 432 256zm0 128H176C167.168 384 160 376.832 160 368 160 359.168 167.168 352 176 352h256C440.832 352 448 359.168 448 368 448 376.832 440.832 384 432 384zm0-256H176C167.168 128 160 120.832 160 112 160 103.168 167.168 96 176 96h256c8.832.0 16 7.168 16 16C448 120.832 440.832 128 432 128zM111.36 328.544V407.456H102.24L84.992 398.24 87.072 390.112 100.8 397.504H101.024V328.544zM85.984 215.232 77.632 207.104v-6.56H128V209.408H92.544V209.632l6.304 5.824c16.64 16.032 27.2 27.808 27.2 42.368.0 11.296-7.168 22.944-24.16 22.944-9.12.0-16.864-3.392-22.336-8.032l3.392-7.52c3.648 3.04 9.6 6.688 16.768 6.688 11.776.0 15.648-7.392 15.648-15.424C115.264 244.608 106.144 234.4 85.984 215.232zM99.104 81.152c-7.392.0-14.432 3.04-17.472 4.96l-2.912-8.256c3.872-2.56 11.648-5.344 20.512-5.344 18.944.0 28.768 11.04 28.768 23.68.0 11.04-7.904 18.336-17.6 20.288v.224c9.728 3.52 14.56 10.432 14.56 18.592.0 9.6-7.04 18.816-22.592 18.816-8.512.0-16.512-3.04-20.64-6.08l2.784-7.776c3.392 2.432 9.472 5.216 15.776 5.216 9.824.0 13.856-5.6 13.856-11.904.0-9.344-9.824-13.344-17.6-13.344L90.592 120.224v-8h5.952c10.336.0 20.288-4.736 20.384-15.776C117.088 89.888 112.832 81.152 99.104 81.152z"  /><glyph unicode="&#x66;" d="M432 384H384c0 17.664-14.336 32-32 32h-32C302.336 416 288 401.664 288 384H80C71.168 384 64 376.832 64 368 64 359.168 71.168 352 80 352H288c0-17.664 14.336-32 32-32h32c17.664.0 32 14.336 32 32h48C440.832 352 448 359.168 448 368 448 376.832 440.832 384 432 384zm-80-32h-32v32h32V352zm80-96H224c0 17.664-14.336 32-32 32H160C142.336 288 128 273.664 128 256H80C71.168 256 64 248.832 64 240 64 231.168 71.168 224 80 224h48c0-17.664 14.336-32 32-32h32c17.664.0 32 14.336 32 32h208C440.832 224 448 231.168 448 240 448 248.832 440.832 256 432 256zM192 224H160v32h32V224zm240-96H320c0 17.664-14.336 32-32 32H256c-17.664.0-32-14.336-32-32H80C71.168 128 64 120.832 64 112 64 103.168 71.168 96 80 96H224c0-17.664 14.336-32 32-32h32c17.664.0 32 14.336 32 32h112c8.832.0 16 7.168 16 16C448 120.832 440.832 128 432 128zM288 96H256v32h32V96z"  /><glyph unicode="&#x67;" d="M160 352v48C160 408.832 152.832 416 144 416S128 408.832 128 4e2V352C110.336 352 96 337.664 96 320v-32c0-17.664 14.336-32 32-32V48C128 39.168 135.168 32 144 32S160 39.168 160 48V256c17.664.0 32 14.336 32 32v32C192 337.664 177.664 352 160 352zm-32-32h32v-32H128v32zM288 192V4e2C288 408.832 280.832 416 272 416S256 408.832 256 4e2V192c-17.664.0-32-14.336-32-32v-32c0-17.664 14.336-32 32-32V48C256 39.168 263.168 32 272 32S288 39.168 288 48V96c17.664.0 32 14.336 32 32v32C320 177.664 305.664 192 288 192zm-32-32h32v-32H256v32zM416 288V4e2C416 408.832 408.832 416 4e2 416S384 408.832 384 4e2V288c-17.664.0-32-14.336-32-32v-32c0-17.664 14.336-32 32-32V48c0-8.832 7.168-16 16-16s16 7.168 16 16V192c17.664.0 32 14.336 32 32v32C448 273.664 433.664 288 416 288zm-32-32h32v-32h-32v32z"  /><glyph unicode="&#x68;" d="M64-32h384c17.664.0 32 14.336 32 32V448c0 17.664-14.336 32-32 32H64C46.336 480 32 465.664 32 448V0C32-17.664 46.336-32 64-32zm0 480h384V0H64V448zm304-64H240C231.168 384 224 376.832 224 368 224 359.168 231.168 352 240 352h128C376.832 352 384 359.168 384 368 384 376.832 376.832 384 368 384zm0-96H144C135.168 288 128 280.832 128 272 128 263.168 135.168 256 144 256h224C376.832 256 384 263.168 384 272 384 280.832 376.832 288 368 288zm0-96H144C135.168 192 128 184.832 128 176 128 167.168 135.168 160 144 160h224c8.832.0 16 7.168 16 16C384 184.832 376.832 192 368 192zm0-96H144C135.168 96 128 88.832 128 80 128 71.168 135.168 64 144 64h224c8.832.0 16 7.168 16 16C384 88.832 376.832 96 368 96z"  /><glyph unicode="&#x69;" d="M64 32h32V0c0-17.664 14.336-32 32-32h320c17.664.0 32 14.336 32 32V384c0 17.664-14.336 32-32 32h-32v32c0 17.664-14.336 32-32 32H64C46.336 480 32 465.664 32 448V64C32 46.336 46.336 32 64 32zM384 64H64V448h320V64zm64 320V0H128v32h256c17.664.0 32 14.336 32 32V384h32zM160 368C160 359.168 167.168 352 176 352h160C344.832 352 352 359.168 352 368 352 376.832 344.832 384 336 384H176C167.168 384 160 376.832 160 368zM112 256h224C344.832 256 352 263.168 352 272 352 280.832 344.832 288 336 288H112C103.168 288 96 280.832 96 272 96 263.168 103.168 256 112 256zm0-64h224C344.832 192 352 199.168 352 208 352 216.832 344.832 224 336 224H112C103.168 224 96 216.832 96 208 96 199.168 103.168 192 112 192zm0-64h224c8.832.0 16 7.168 16 16 0 8.832-7.168 16-16 16H112C103.168 160 96 152.832 96 144 96 135.168 103.168 128 112 128z"  /><glyph unicode="&#x6a;" d="M481.952-1.952 448.32 99.552 176.8 371.072 160 354.272 108.928 303.2 380.448 31.68zM63.68 348.448 131.552 416.32l-33.6 33.6c-18.752 18.752-49.12 18.752-67.872.0-18.752-18.72-18.752-49.152.0-67.872L63.68 348.448z"  /><glyph unicode="&#x6b;" d="M329.92 92.512 416 64 387.488 150.08 223.008 314.56 165.44 256.992zM131.552 290.88 189.12 348.448 146.752 390.816c-15.904 15.904-41.664 15.904-57.568.0-15.904-15.904-15.904-41.664.0-57.568L131.552 290.88zM480 480H32C14.336 480 0 465.664.0 448V0c0-17.664 14.336-32 32-32h448c17.664.0 32 14.336 32 32V448C512 465.664 497.664 480 480 480zM480 0H32V448h448V0z"  /><glyph unicode="&#x6c;" d="M338.752 141.248 310.24 227.328 145.76 391.808 88.192 334.24 252.672 169.76zM11.936 468.064c-15.904-15.904-15.904-41.664.0-57.568l42.368-42.368 57.568 57.568L69.504 468.064C53.6 483.968 27.84 483.968 11.936 468.064zM480 384H253.152l32-32H480V0H128V194.848l-32 32V0c0-17.664 14.336-32 32-32h352c17.664.0 32 14.336 32 32V352C512 369.664 497.664 384 480 384z"  /><glyph unicode="&#x6d;" d="M480 384H335.488C317.824 384 297.504 375.008 288 352c0 0-4.16-29.344-32-32H32C14.336 320 0 306.176.0 288.512V0c0-17.664 14.336-32 32-32h448c17.664.0 32 14.336 32 32V256v32.512V352C512 369.664 497.664 384 480 384zm0-95.488V256 0H32V288h224c1.024.0 2.016.064 3.04.16C289.056 291.008 307.616 312 316.192 333.6 324.512 354.496 339.008 352 339.008 352H480V288.512z"  /><glyph unicode="&#x6e;" d="M512 320.512V384c0 17.664-14.336 32-32 32H320C302.336 416 288 401.664 288 384c0 0-4.16-29.344-32-32H32C14.336 352 0 338.176.0 320.512V288h512v32.512zM32-32h448c17.664.0 32 14.336 32 32V256H0V0C0-17.664 14.336-32 32-32zm0 256h448V0H32V224z"  /><glyph unicode="&#x6f;" d="M480 384H367.488C349.824 384 329.504 375.008 320 352c0 0-4.16-29.344-32-32H64C46.336 320 32 306.176 32 288.512V0c0-17.664 14.336-32 32-32h416c17.664.0 32 14.336 32 32V256v32.512V352C512 369.664 497.664 384 480 384zm0-95.488V256 0H64V288h224c1.024.0 2.016.064 3.04.16 30.016 2.848 48.576 23.872 57.152 45.472C356.512 354.496 371.008 352 371.008 352H480V288.512zM352 160H288v64c0 8.832-7.168 16-16 16S256 232.832 256 224v-64H192c-8.832.0-16-7.168-16-16C176 135.168 183.168 128 192 128h64V64c0-8.832 7.168-16 16-16S288 55.168 288 64v64h64c8.832.0 16 7.168 16 16C368 152.832 360.832 160 352 160z"  /><glyph unicode="&#x70;" d="M256 480C114.624 480 0 365.376.0 224S114.624-32 256-32 512 82.624 512 224 397.376 480 256 480zM256 0c-123.52.0-224 100.48-224 224s100.48 224 224 224 224-100.48 224-224S379.52.0 256 0zm0 288C238.336 288 224 273.664 224 256V96c0-17.664 14.336-32 32-32s32 14.336 32 32V256C288 273.664 273.664 288 256 288zm-32 63.488a32 32 1260 1 1 64 0 32 32 1260 1 1-64 0z"  /><glyph unicode="&#x71;" d="M371.424 470.624C365.408 476.64 357.28 480 348.768 480H163.232c-8.48.0-16.64-3.36-22.624-9.376l-131.2-131.232C3.36 333.408.0 325.28.0 316.768v-185.568c0-8.48 3.36-16.64 9.376-22.624l131.2-131.232C146.592-28.64 154.72-32 163.232-32H348.8c8.48.0 16.64 3.36 22.624 9.376l131.2 131.232C508.64 114.592 512 122.72 512 131.232V316.768c0 8.48-3.36 16.64-9.376 22.624L371.424 470.624zM480 131.232 348.768.0H163.232L32 131.232V316.768L163.232 448H348.8L480 316.768V131.232zM256 384C238.336 384 224 369.664 224 352V192c0-17.664 14.336-32 32-32s32 14.336 32 32V352C288 369.664 273.664 384 256 384zM224 96a32 32 1260 1 1 64 0 32 32 1260 1 1-64 0z"  /><glyph unicode="&#x72;" d="M256 480C114.624 480 0 365.376.0 224S114.624-32 256-32 512 82.624 512 224 397.376 480 256 480zM256 0c-123.52.0-224 100.48-224 224s100.48 224 224 224 224-100.48 224-224S379.52.0 256 0zm0 384C238.336 384 224 369.664 224 352V192c0-17.664 14.336-32 32-32s32 14.336 32 32V352C288 369.664 273.664 384 256 384zM224 96.512a32 32 1260 1 1 64 0 32 32 1260 1 1-64 0z"  /><glyph unicode="&#x73;" d="M506.24 15.072l-222.016 416C278.688 441.472 267.84 448 256.032 448H256C244.192 448 233.376 441.504 227.808 431.104l-223.008-416c-5.312-9.92-5.024-21.888.736-31.552C11.328-26.08 21.76-32 32.992-32h444.992c11.232.0 21.664 5.888 27.456 15.552C511.232-6.816 511.52 5.152 506.24 15.072zM32.992.0 256 416l222.016-416H32.992zM224 255.488v-96c0-17.664 14.336-32 32-32s32 14.336 32 32v96c0 17.664-14.336 32-32 32S224 273.184 224 255.488zM224 64a32 32 1260 1 1 64 0 32 32 1260 1 1-64 0z"  /><glyph unicode="&#x74;" d="M256 480C114.624 480 0 365.376.0 224S114.624-32 256-32 512 82.624 512 224 397.376 480 256 480zM256 0c-123.52.0-224 100.48-224 224s100.48 224 224 224 224-100.48 224-224S379.52.0 256 0zM220.384 63.552A32.96 32.96 1260 1 1 286.304 63.55200000000002a32.96 32.96 1260 1 1-65.91999999999999.0zM253.344 416c-62.048.0-128-45.088-128-128.672.0-17.664 14.304-32 32-32s32 14.336 32 32c0 44.448 33.184 64.672 64 64.672 23.904.0 64-7.008 64-54.016.0-16.672-4.384-36.128-36.768-53.984C258.56 231.936 221.344 200.608 221.344 160c0-17.664 14.304-32 32-32s32 14.336 32 32c0 5.952 12.672 20.576 26.08 27.968 46.368 25.536 69.92 62.56 69.92 110.016C381.344 379.52 317.056 416 253.344 416z"  /><glyph unicode="&#x75;" d="M220.384 63.552A32.96 32.96 1260 1 1 286.304 63.55200000000002a32.96 32.96 1260 1 1-65.91999999999999.0zM311.424 187.968c46.368 25.536 69.92 62.56 69.92 110.016.0 81.504-64.288 118.016-128 118.016-62.048.0-128-45.088-128-128.672.0-17.664 14.304-32 32-32s32 14.336 32 32c0 44.448 33.184 64.672 64 64.672 23.904.0 64-7.008 64-54.016.0-16.672-4.384-36.128-36.768-53.984C258.56 231.936 221.344 200.608 221.344 160c0-17.664 14.304-32 32-32s32 14.336 32 32C285.344 165.952 297.984 180.576 311.424 187.968z"  /><glyph unicode="&#x76;" d="M30.368 9.888c2.624-5.632 8.288-9.216 14.496-9.216 45.92.0 84.768 11.168 128.896 37.184C195.168 34.464 237.44 30.272 256 30.272c140.096.0 254.048 93.536 254.048 208.544S396.096 447.328 256 447.328 1.952 353.824 1.952 238.816c0-54.208 26.144-106.592 72.16-145.408-10.432-23.68-24.352-46.016-41.504-66.464C28.64 22.144 27.744 15.488 30.368 9.888zM33.952 238.816c0 97.344 99.616 176.544 222.048 176.544s222.048-79.2 222.048-176.544S378.432 62.272 256 62.272c-18.368.0-66.176 4.928-82.336 8.064-3.904.704-7.968-.032-11.36-2.048C132.48 50.048 106.464 39.616 78.624 35.2c12 18.176 21.984 37.376 29.76 57.376 2.592 6.688.48 14.24-5.248 18.56C58.496 144.928 33.952 190.304 33.952 238.816z"  /><glyph unicode="&#x77;" d="M446.56 291.36c2.816-12.672 4.448-25.696 4.448-39.072.0-103.296-87.68-189.408-203.136-207.904 24.416-9.856 51.776-15.616 80.928-15.616 27.488.0 53.44 5.056 76.864 13.856 29.664-10.112 62.048-12.736 88.832-12.736-13.92 16.704-23.584 33.088-30.496 47.488C493.696 103.872 512 138.976 512 177.632 512 223.328 486.496 264.064 446.56 291.36zM23.552 73.312c2.784-5.28 8.256-8.576 14.176-8.576.256.0.544.0.768.032 16.928.8 50.592 12.032 86.24 34.656 19.072-3.36 61.792-9.696 76.704-9.696 112.544.0 200.672 78.368 200.672 178.432.0 98.4-89.984 178.432-200.672 178.432S.832 366.592.832 268.192c0-45.792 20.16-90.048 55.648-123.168-7.968-19.392-18.528-37.728-31.424-54.528C21.248 85.568 20.672 78.848 23.552 73.312zM32.832 268.192c0 80.736 75.648 146.432 168.672 146.432s168.672-65.696 168.672-146.432c0-83.456-72.512-146.432-168.672-146.432-12.64.0-62.944 7.328-76.768 10.24-4.224.832-8.608.064-12.128-2.336-13.728-9.088-26.656-15.968-37.92-21.024 6.112 11.488 11.392 23.392 15.808 35.68 2.272 6.368.32 13.472-4.864 17.76C51.584 190.08 32.832 227.776 32.832 268.192z"  /><glyph unicode="&#x78;" d="M32 91.936h73.312c5.792-5.76 139.232-118.08 139.232-118.08C251.488-30.368 257.536-32 262.816-32c.8.0 1.6.032 2.368.096 11.84 1.12 20.288 11.04 22.816 21.504L288 458.368C285.504 468.864 277.024 478.784 265.184 479.904 264.416 479.968 263.648 480 262.816 480 257.536 480 251.488 478.368 244.544 474.176c0 0-133.44-116.416-139.232-122.176H32C14.336 352 0 337.664.0 320v-4.064V128v-4.064C0 106.24 14.336 91.936 32 91.936zM32 128V315.936 320h73.312c8.192.0 16.384 3.424 22.304 9.056C133.44 334.592 205.76 397.856 256 441.696v-435.68c-49.92 42.048-122.24 103.136-128.128 108.576-5.984 5.984-14.112 9.312-22.592 9.312L32 123.904V128zM506.272 306.848c-7.616 7.616-20 7.616-27.616.0l-55.232-55.232-55.232 55.232c-7.616 7.616-20 7.616-27.616.0-7.616-7.616-7.616-20 0-27.616L395.808 224l-55.232-55.232c-7.616-7.616-7.616-20 0-27.616 7.616-7.616 20-7.616 27.616.0l55.232 55.232 55.232-55.232c7.616-7.616 20-7.616 27.616.0 7.616 7.616 7.616 20 0 27.616L451.04 224l55.232 55.232C513.92 286.848 513.92 299.232 506.272 306.848z"  /><glyph unicode="&#x79;" d="M326.816 480c-5.28.0-11.328-1.632-18.272-5.824.0.0-133.44-116.416-139.232-122.176H96C78.336 352 64 337.664 64 320v-4.064V128v-4.064c0-17.664 14.336-32 32-32h73.312c5.792-5.76 139.232-118.08 139.232-118.08C315.488-30.368 321.536-32 326.816-32c.8.0 1.6.032 2.368.096 11.84 1.12 20.288 11.04 22.816 21.504L352 458.368c-2.496 10.496-10.976 20.416-22.816 21.504C328.416 479.968 327.648 480 326.816 480zM320 6.016c-49.92 42.048-122.24 103.136-128.128 108.576-5.984 5.984-14.112 9.312-22.592 9.312H96V128 315.936 320h73.312c8.192.0 16.384 3.424 22.304 9.056C197.44 334.592 269.76 397.856 320 441.696V6.016zM401.312 168.096c-7.904-4-11.072-13.6-7.104-21.504 2.816-5.568 8.448-8.8 14.272-8.8 2.432.0 4.864.544 7.2 1.696C448.032 155.808 468.128 188.16 468.128 224s-20.096 68.192-52.448 84.512c-7.904 4-17.504.8-21.472-7.104-3.968-7.904-.8-17.504 7.104-21.504C422.784 269.088 436.128 247.68 436.128 224S422.784 178.912 401.312 168.096z"  /><glyph unicode="&#x7a;" d="M32 91.936h73.312c5.792-5.76 139.232-118.08 139.232-118.08C251.488-30.368 257.536-32 262.816-32c.8.0 1.6.032 2.368.096 11.84 1.12 20.288 11.04 22.816 21.504L288 458.368C285.504 468.864 277.024 478.784 265.184 479.904 264.416 479.968 263.648 480 262.816 480 257.536 480 251.488 478.368 244.544 474.176c0 0-133.44-116.416-139.232-122.176H32C14.336 352 0 337.664.0 320v-4.064V128v-4.064C0 106.24 14.336 91.936 32 91.936zM32 128V315.936 320h73.312c8.192.0 16.384 3.424 22.304 9.056C133.44 334.592 205.76 397.856 256 441.696v-435.68c-49.92 42.048-122.24 103.136-128.128 108.576-5.984 5.984-14.112 9.312-22.592 9.312L32 123.904V128zM337.312 168.096c-7.904-4-11.072-13.6-7.104-21.504 2.816-5.568 8.448-8.8 14.272-8.8 2.432.0 4.864.544 7.2 1.696C384.032 155.808 404.128 188.16 404.128 224s-20.096 68.192-52.448 84.512c-7.904 4-17.504.8-21.472-7.104-3.968-7.904-.8-17.504 7.104-21.504C358.784 269.088 372.128 247.68 372.128 224S358.784 178.912 337.312 168.096zM315.296 40.352c1.504-7.648 8.192-12.928 15.68-12.928 1.024.0 2.048.096 3.104.288C427.904 46.016 496 128.576 496 224s-68.096 177.984-161.952 196.288C325.536 422.016 316.96 416.32 315.296 407.648 313.6 398.976 319.264 390.56 327.936 388.864 406.784 373.504 464 304.16 464 224s-57.216-149.504-136.064-164.864C319.264 57.44 313.6 49.024 315.296 40.352z"  /><glyph unicode="&#x7b;" d="M127.968 270.112c0-27.04 21.12-48.96 47.136-48.96 8.352.0 16.064 2.432 22.88 6.4-2.336-26.176-15.52-64.352-63.84-103.264-6.752-5.472-8-15.584-2.752-22.592 3.072-4.096 7.648-6.24 12.256-6.24 3.328.0 6.656 1.088 9.504 3.392 59.296 47.84 74.112 96.992 76.096 129.824C232.64 270.656 219.904 292.736 208.256 304.256 207.2 305.376 206.208 306.592 205.024 307.584 202.24 309.952 199.744 311.616 197.568 312.864 197.472 312.928 197.408 313.024 197.312 313.056c-.16.096-.32.128-.48.192C193.664 315.008 191.392 315.84 191.392 315.84l.16-.384C186.4 317.568 180.992 319.072 175.104 319.072 149.056 319.072 127.968 297.152 127.968 270.112zM283.104 270.112c0-27.04 21.088-48.96 47.136-48.96 8.352.0 16.064 2.432 22.88 6.4-2.336-26.176-15.52-64.352-63.84-103.264-6.784-5.472-8-15.584-2.752-22.592 3.072-4.096 7.648-6.24 12.256-6.24 3.328.0 6.656 1.088 9.504 3.392 59.296 47.84 74.112 96.992 76.096 129.824 3.392 41.984-9.376 64.064-20.992 75.584-1.088 1.12-2.08 2.336-3.264 3.328-2.784 2.368-5.28 4.032-7.456 5.28-.096.064-.16.128-.256.192-.16.096-.32.128-.48.192-3.168 1.728-5.44 2.592-5.44 2.592l.16-.384c-5.152 2.112-10.592 3.616-16.448 3.616C304.192 319.072 283.104 297.152 283.104 270.112z"  /><glyph unicode="&#x7c;" d="M256 480C114.624 480 0 365.376.0 224S114.624-32 256-32 512 82.624 512 224 397.376 480 256 480zM256 0c-123.52.0-224 100.48-224 224s100.48 224 224 224 224-100.48 224-224S379.52.0 256 0zM205.024 307.584C202.24 309.952 199.744 311.616 197.568 312.864 197.472 312.928 197.408 313.024 197.312 313.056c-.16.096-.32.128-.48.192C193.664 315.008 191.392 315.84 191.392 315.84l.16-.384C186.4 317.568 180.992 319.072 175.104 319.072c-26.048.0-47.136-21.92-47.136-48.96.0-27.04 21.12-48.96 47.136-48.96 8.352.0 16.064 2.432 22.88 6.4-2.336-26.176-15.52-64.352-63.84-103.264-6.752-5.472-8-15.584-2.752-22.592 3.072-4.096 7.648-6.24 12.256-6.24 3.328.0 6.656 1.088 9.504 3.392 59.296 47.84 74.112 96.992 76.096 129.824C232.64 270.656 219.904 292.736 208.256 304.256 207.2 305.376 206.208 306.592 205.024 307.584zM360.16 307.584c-2.784 2.368-5.28 4.032-7.456 5.28-.096.064-.16.128-.256.192-.16.096-.32.128-.48.192-3.168 1.728-5.44 2.592-5.44 2.592l.16-.384c-5.152 2.112-10.592 3.616-16.448 3.616-26.048.0-47.136-21.92-47.136-48.96.0-27.04 21.088-48.96 47.136-48.96 8.352.0 16.064 2.432 22.88 6.4-2.336-26.176-15.52-64.352-63.84-103.264-6.784-5.472-8-15.584-2.752-22.592 3.072-4.096 7.648-6.24 12.256-6.24 3.328.0 6.656 1.088 9.504 3.392 59.296 47.84 74.112 96.992 76.096 129.824 3.392 41.984-9.376 64.064-20.992 75.584C362.336 305.376 361.344 306.592 360.16 307.584z"  /><glyph unicode="&#x7d;" d="M273.056 445.856c-61.152.0-122.304-23.328-168.96-69.984-93.312-93.312-93.312-244.608.0-337.888C150.784-8.672 211.904-32 273.056-32s122.304 23.328 168.96 69.984c93.312 93.312 93.312 244.608.0 337.888C395.36 422.528 334.208 445.856 273.056 445.856zM419.392 60.608C380.32 21.536 328.352.0 273.056.0c-55.264.0-107.232 21.536-146.336 60.608-39.072 39.072-60.608 91.04-60.608 146.336s21.536 107.232 60.608 146.336c39.072 39.072 91.04 60.608 146.336 60.608 55.264.0 107.232-21.536 146.336-60.608S480 262.208 480 206.944 458.464 99.68 419.392 60.608zM368 224H288V336.224c0 8.832-7.168 16-16 16S256 345.056 256 336.224V208.096c0 0 0-.032.0-.032V208C256 199.168 263.168 192 272 192h96C376.832 192 384 199.168 384 208 384 216.832 376.832 224 368 224z"  /><glyph unicode="&#x7e;" d="M256 480C167.648 480 96 407.264 96 317.536V288H64C46.336 288 32 273.664 32 256V0c0-17.664 14.336-32 32-32h384c17.664.0 32 14.336 32 32V256c0 17.664-14.336 32-32 32h-32v29.536C416 407.264 344.352 480 256 480zM128 317.536C128 389.472 185.408 448 256 448s128-58.528 128-130.464V288H128v29.536zM448 0H64V256h384V0zM320 128c0 35.36-28.64 64-64 64s-64-28.64-64-64 28.64-64 64-64 64 28.64 64 64zM256 96c-17.632.0-32 14.368-32 32s14.368 32 32 32 32-14.368 32-32S273.632 96 256 96z"  /><glyph unicode="&#xe000;" d="M480 0V256c0 17.664-14.336 32-32 32H127.84L128 301.568C128 387.776 181.248 448 257.536 448c55.84.0 105.6-32.096 129.888-83.776 3.744-8 13.248-11.424 21.28-7.648 8 3.744 11.424 13.28 7.648 21.28C386.752 440.832 325.92 480 257.536 480 163.936 480 96 404.96 96 301.76L95.84 288H64C46.336 288 32 273.664 32 256V0c0-17.664 14.336-32 32-32h384C465.664-32 480-17.664 480 0zM64 256h384V0H64V256zm192-64c-35.36.0-64-28.64-64-64s28.64-64 64-64 64 28.64 64 64S291.36 192 256 192zm0-96c-17.632.0-32 14.368-32 32s14.368 32 32 32 32-14.368 32-32S273.632 96 256 96z"  /><glyph unicode="&#xe001;" d="M176 80c0 9.504-2.048 18.688-6.08 27.232C159.424 129.568 136.672 144 112 144c-35.296.0-64-28.704-64-64 0-6.304 1.184-12.256 2.88-18.016 10.72-17.664 25.44-32.384 43.104-43.104 5.76-1.696 11.712-2.88 18.016-2.88C147.296 16 176 44.704 176 80zm-64 32c12.352.0 23.712-7.232 28.992-18.4C142.976 89.344 144 84.768 144 80c0-17.632-14.368-32-32-32S80 62.368 80 80 94.368 112 112 112zM496 480h-69.248c-3.776.0-7.424-1.344-10.336-3.776L189.856 284.896C179.424 286.976 169.6 288 160 288 71.776 288 0 216.224.0 128S71.776-32 160-32s160 71.776 160 160c0 16.832-2.688 33.472-8 49.6l48.704 31.648c4.544 2.944 7.296 8 7.296 13.408V280.8l60.832 3.2c7.936.416 14.336 6.592 15.072 14.496l5.824 61.632 53.152 25.408C508.48 388.224 512 393.856 512 4e2v64C512 472.832 504.832 480 496 480zM480 410.08l-52.224-24.96c-5.056-2.432-8.512-7.328-9.024-12.928l-5.376-56.928L351.168 312C342.656 311.52 336 304.512 336 296v-64.64L283.776 197.408C277.28 193.184 274.72 184.896 277.76 177.76 284.576 161.728 288 144.992 288 128c0-70.592-57.408-128-128-128-24.224.0-46.656 7.136-66.016 18.88-17.664 10.72-32.384 25.44-43.104 43.104C39.136 81.344 32 103.776 32 128c0 70.592 57.408 128 128 128 9.44.0 19.36-1.312 30.336-3.968 4.96-1.216 10.208.0 14.112 3.328L432.608 448H480V410.08z"  /><glyph unicode="&#xe002;" d="M416 224c-1.12.0-2.176-.288-3.264-.32C414.88 234.112 416 244.928 416 256c0 88.352-71.648 160-160 160S96 344.352 96 256c0-.544.16-1.056.16-1.6C41.888 246.656.0 200.416.0 144c0-56.384 41.792-102.56 96-110.4V32h320c53.024.0 96 42.976 96 96s-42.976 96-96 96zm0-160H106.048c-1.76.576-3.584 1.024-5.472 1.28C61.472 70.912 32 104.768 32 144c0 39.296 29.536 73.12 68.672 78.72 15.904 2.272 27.648 15.968 27.488 32 0 .96-.064 1.92-.16 2.848C128.864 327.456 185.952 384 256 384c70.592.0 128-57.408 128-128 0-8.704-.896-17.408-2.624-25.888-1.984-9.6.576-19.584 6.912-27.072 6.08-7.2 15.04-11.328 24.448-11.328.384.0.736.0 1.12.032C414.56 191.712 416.064 191.84 417.312 192 452 191.296 480 162.848 480 128 480 92.704 451.296 64 416 64z"  /><glyph unicode="&#xe003;" d="M416.832 224.032c-1.376.0-2.72.0-4.032-.032C414.912 234.528 416 245.28 416 256c0 88.224-71.776 160-160 160-88.16.0-160-71.072-160.096-158.368.0-.032.256-3.232.256-3.232v0C41.344 246.56.0 199.104.0 144c0-55.872 40.256-103.936 96-112h80C184.832 32 192 39.168 192 48S184.832 64 176 64l-77.664-.16C61.152 69.312 32 104.544 32 144c0 39.296 29.504 73.12 68.672 78.72l13.76 1.984c7.872 1.12 13.728 7.872 13.728 15.84L127.904 257.568C128 327.296 185.44 384 256 384c70.592.0 128-57.408 128-128 0-8.672-.864-17.408-2.624-25.888l-4.224-20.352c-1.056-5.088.448-10.336 3.968-14.144 3.52-3.776 8.576-5.728 13.824-4.928.352.032 10.368 1.344 21.888 1.344C451.68 192.032 480 163.328 480 128c0-35.296-28.704-64-64-64H304c-44.8.0-47.84 26.848-48 32V202.176l37.856-37.824c6.24-6.24 16.384-6.24 22.624.0 6.24 6.24 6.24 16.384.0 22.624L252.096 251.328C248.96 254.464 244.832 256 240.704 256 240.448 256 240.256 256.128 240 256.128c-4.608.0-8.672-1.984-11.584-5.088L163.968 186.656c-6.24-6.24-6.24-16.384.0-22.624 6.24-6.24 16.384-6.24 22.624.0L224 201.408V96c0-22.112 16.704-64 80-64H416c52.928.0 96 43.072 96 96S469.312 224.032 416.832 224.032z"  /><glyph unicode="&#xe004;" d="M418.656 224c29.888 68.64 11.456 112.288-3.552 133.312-22.784 31.904-64.288 49.408-100.736 42.4C251.008 387.616 224 344.672 224 256v-74.048L186.944 219.008c-6.24 6.24-16.384 6.24-22.624.0s-6.24-16.384.0-22.624l64.384-64.352c3.232-3.232 7.488-4.704 11.712-4.608 4.224-.096 8.48 1.376 11.712 4.608l64.704 64.672c6.24 6.24 6.24 16.384.0 22.624s-16.384 6.24-22.624.0L256 181.152V256c0 92.288 31.776 106.048 64.32 112.288 20.896 3.84 51.136-4.928 68.704-29.568 21.504-30.048 17.376-74.624-11.616-125.44-3.072-5.408-2.752-12.096.832-17.152s9.888-7.616 15.872-6.528c3.872.672 15.424 2.432 22.72 2.432C451.68 192.032 480 163.328 480 128c0-35.296-28.704-64-64-64l-317.664-.192C61.152 69.312 32 104.544 32 144c0 39.296 29.504 73.12 68.672 78.72l13.76 1.984c7.872 1.12 13.728 7.872 13.728 15.84L127.904 257.568C128 314.88 163.328 361.984 212 369.568 220.704 370.944 226.688 379.104 225.344 387.84 223.968 396.576 216 402.496 207.04 401.184 142.72 391.168 96 330.784 95.904 257.632c0-.032.256-3.232.256-3.232v0C41.344 246.56.0 199.104.0 144c0-55.872 40.256-103.936 96-112h320c52.928.0 96 43.072 96 96C512 180.352 470.272 223.04 418.656 224z"  /><glyph unicode="&#xe005;" d="M275.648 292.992A44.512 44.512 1260 1 1 364.672 292.99199999999996a44.512 44.512 1260 1 1-89.024.0zM416 32h32V64v64 96L320 128 160 256 64 160V128 64 32H96zm64 384H32C14.336 416 0 401.664.0 384V0c0-17.664 14.336-32 32-32h448c17.664.0 32 14.336 32 32V384C512 401.664 497.664 416 480 416zM480 0H32V384h448V0z"  /><glyph unicode="&#xe006;" d="M480 384h-32v64c0 17.664-14.336 32-32 32H32C14.336 480 0 465.664.0 448V96c0-17.664 14.336-32 32-32h32V0c0-17.664 14.336-32 32-32h384c17.664.0 32 14.336 32 32V352C512 369.664 497.664 384 480 384zM32 96V448h384V96H32zM480 0H96v64h32V32h32 256 32v32 32 96V352h32V0zM236.64 348.992A44.512 44.512 1260 1 1 325.664 348.99199999999996a44.512 44.512 1260 1 1-89.024.0zM160 320 64 256V192 160 128H96 352h32v32 32 96L256 224z"  /><glyph unicode="&#xe007;" d="M256 480C150.144 480 64 393.856 64 288c0-61.888 30.08-120.32 80.512-156.32.768-.544 1.568-1.056 2.368-1.536 11.712-6.88 12.864-29.056 12.608-33.12-.032-.672-.064-1.344-.064-1.984V32c0-12.032 6.72-23.008 17.44-28.48l64.576-32.992c4.576-2.336 9.568-3.52 14.56-3.52 4.96.0 9.888 1.152 14.432 3.424l65.344 32.992c10.784 5.44 17.568 16.48 17.568 28.576v62.656c0 31.584 19.296 42.016 19.488 42.112 2.56 1.184 4.928 2.72 7.072 4.544C423.168 177.92 448 231.36 448 288c0 105.856-86.144 192-192 192zM191.424 95.008c0 0 0 .64.032.992h129.984c0-.48-.128-.832-.128-1.344.0-12.576.0-22.528.0-30.656H191.424V95.008zM256-.992 191.456 32h129.888L256-.992zM359.232 165.76c0 0-21.44-10.08-32.064-37.76H186.304c-3.968 11.072-10.848 22.464-23.2 29.728C122.496 186.72 96 234.272 96 288c0 88.352 71.648 160 160 160s160-71.648 160-160C416 238.976 393.952 195.104 359.232 165.76zM272 416C263.168 416 256 408.832 256 4e2S263.168 384 272 384C308 384 352 351.264 352 302.496c0-8.832 7.168-16 16-16s16 7.168 16 16C384 375.488 327.008 416 272 416z"  /><glyph unicode="&#xe008;" d="M480 352H288.672 224 32C14.336 352 0 337.664.0 320v-96h32V0c0-17.664 14.336-32 32-32h160 64.672H448c17.664.0 32 14.336 32 32V224h32v96C512 337.664 497.664 352 480 352zM32 320h192v-64H32v64zM64 0V224h160V0H64zM448 0H288.672V224H448V0zm32 256H288.672v64H480V256zM256 384c0 .064-.032.192-.032.256h.096C256.032 384.192 256 384.064 256 384c0 0 83.808.0 128 0 44.192.0 64 21.504 64 48S428.192 480 384 480c-41.376.0-73.952-18.624-96-40.224C278.336 445.504 267.168 448.992 255.072 448.992c-11.584.0-22.304-3.264-31.712-8.576C201.344 461.76 168.96 480 128 480 83.808 480 64 458.496 64 432S83.808 384 128 384C172.192 384 256 384 256 384zm160 48C416 418.784 398.592 416 384 416H311.328C311.072 416.448 310.848 416.928 310.592 417.344 326.848 433.152 351.488 448 384 448 398.592 448 416 445.216 416 432zM96 432C96 445.216 113.408 448 128 448c31.808.0 55.936-14.24 72.192-29.504C199.68 417.696 199.296 416.832 198.816 416H128C113.408 416 96 418.784 96 432z"  /><glyph unicode="&#xe009;" d="M25.984 195.488 64 225.888V0c0-17.664 14.336-32 32-32h96c17.664.0 32 14.336 32 32v128h64V0c0-17.664 14.336-32 32-32h96c17.664.0 32 14.336 32 32V225.888l38.016-30.4C488.96 193.152 492.48 192 496 192c4.704.0 9.344 2.048 12.512 6.016 5.504 6.912 4.384 16.96-2.496 22.496l-240 192c-5.856 4.672-14.144 4.672-20 0L160 343.712V384c0 17.664-14.336 32-32 32S96 401.664 96 384v-91.488l-89.984-72c-6.88-5.536-8-15.584-2.496-22.496C9.024 191.104 19.072 189.984 25.984 195.488zM256 379.52l160-128V0h-96v160H192V0H96V251.488L256 379.52z"  /><glyph unicode="&#xe00a;" d="M40.704 85.504c7.68-11.936 23.808-26.144 57.088-26.144 20.928.0 47.712 6.112 77.536 16.768C188.224 19.296 211.936-32 256-32c44.8.0 68.608 53.056 81.344 111.072 29.888-10.112 56.768-15.936 77.792-15.936 35.2.0 51.712 14.976 59.392 27.52 24.832 40.704-13.92 92.384-60.704 135.104 8.64 8.32 16.768 16.64 23.904 24.736 40.448 46.048 51.744 83.712 33.568 112-7.68 11.936-23.808 26.144-57.088 26.144v0c-20.928.0-47.712-6.112-77.536-16.768C323.776 428.704 300.064 480 256 480 211.2 480 187.392 426.944 174.656 368.928 144.768 379.072 117.888 384.864 96.864 384.864v0c-35.2.0-51.744-14.976-59.392-27.52C12.64 316.64 51.392 264.96 98.176 222.24c-8.64-8.352-16.768-16.64-23.904-24.736C33.824 151.456 22.528 113.76 40.704 85.504zM256 0c-20.704.0-39.072 34.592-50.784 88 16.832 7.264 34.24 15.744 52.064 25.44 17.088-8.768 33.792-16.416 49.984-23.072C295.616 35.616 277.024.0 256 0zM192 224c0 11.744.352 23.2.832 34.464 9.216 6.528 18.656 12.992 28.544 19.36C232.736 285.12 243.968 291.84 255.104 298.24c11.296-6.144 22.688-12.576 34.208-19.584 10.304-6.304 20.192-12.736 29.792-19.2C319.648 247.872 320 236.096 320 224c0-11.744-.352-23.2-.832-34.464C309.952 183.008 300.512 176.544 290.624 170.176 279.264 162.88 268.032 156.16 256.896 149.76c-11.296 6.144-22.688 12.576-34.208 19.584-10.304 6.304-20.192 12.736-29.792 19.2C192.352 200.128 192 211.904 192 224zM160.16 211.968C155.456 215.552 150.848 219.136 146.432 222.688 150.848 226.432 155.424 230.176 160.096 233.92 160.032 229.632 160 226.016 160 224 160 221.664 160.064 217.248 160.16 211.968zM195.744 299.072C196.672 308.16 197.76 316.96 199.008 325.472 206.304 322.368 213.76 318.944 221.376 315.36c-5.76-3.52-11.52-6.88-17.312-10.592C201.184 302.88 198.592 300.928 195.744 299.072zM288.48 316.16c8.256 4.16 16.32 8.032 24.224 11.584C314.048 318.688 315.2 309.248 316.192 299.552c-4.448 2.848-8.192 5.184-10.176 6.4C300.16 309.536 294.304 312.768 288.48 316.16zM351.84 236.032c4.704-3.584 9.312-7.168 13.728-10.72-4.416-3.744-8.992-7.456-13.696-11.232C351.968 218.368 352 221.984 352 224 352 226.336 351.936 230.752 351.84 236.032zM316.256 148.928c-.928-9.088-1.984-17.92-3.232-26.4-7.296 3.104-14.784 6.528-22.368 10.112 5.76 3.52 11.52 6.88 17.312 10.592C310.816 145.12 313.408 147.072 316.256 148.928zM205.984 142.048c5.856-3.584 11.68-6.816 17.536-10.208-8.256-4.16-16.32-8.032-24.224-11.584-1.344 9.024-2.496 18.464-3.488 28.192C200.256 145.632 204 143.264 205.984 142.048zM447.2 107.328c-5.056-8.256-16.256-12.192-32.064-12.192-18.464.0-43.392 5.632-71.808 15.616 3.392 21.952 5.504 43.392 6.752 61.696 14.304 10.56 27.52 21.248 40.032 32C435.264 163.456 458.752 126.24 447.2 107.328zM414.208 356.64c14.656.0 25.184-3.68 30.176-11.456 12-18.656-10.656-56.448-54.88-98.528-13.76 11.2-27.328 21.44-39.552 30.112-1.312 18.88-3.488 40.896-7.104 63.392C371.232 350.688 396.032 356.64 414.208 356.64zM256 448c20.704.0 39.072-34.592 50.784-88-16.832-7.264-34.24-15.744-52.064-25.44C237.6 343.328 220.896 351.008 204.736 357.632 216.384 412.384 234.976 448 256 448zM64.8 340.672c5.056 8.256 16.256 12.192 32.064 12.192 18.464.0 43.392-5.632 71.808-15.616C165.248 315.296 163.168 293.888 161.92 275.552c-14.304-10.56-27.52-21.248-40.032-32C76.736 284.544 53.248 321.76 64.8 340.672zM162.016 171.264c1.312-18.88 3.488-40.896 7.104-63.392-28.352-10.528-53.152-16.48-71.328-16.48-14.656.0-25.184 3.68-30.176 11.456-12 18.656 10.656 56.448 54.88 98.528C136.224 190.176 149.792 179.904 162.016 171.264z"  /><glyph unicode="&#xe00b;" d="M384-32c17.664.0 32 14.336 32 32V448c0 17.664-14.336 32-32 32H160C142.336 480 128 465.664 128 448V0c0-17.664 14.336-32 32-32H384zM256 17.984c0 9.952 8.064 17.984 17.984 17.984s17.984-8.064 17.984-17.984S283.936.0 273.984.0 256 8.064 256 17.984zM336 448C344.832 448 352 440.832 352 432 352 423.168 344.832 416 336 416h-32C295.168 416 288 423.168 288 432 288 440.832 295.168 448 304 448h32zm-80-16C256 423.168 248.832 416 240 416S224 423.168 224 432C224 440.832 231.168 448 240 448S256 440.832 256 432zm-96-48h224V64H160V384z"  /><glyph unicode="&#xe00c;" d="M416-32c17.664.0 32 14.336 32 32V448c0 17.664-14.336 32-32 32H96C78.336 480 64 465.664 64 448V0c0-17.664 14.336-32 32-32H416zM256-17.984c-9.952.0-17.984 8.064-17.984 17.984S246.048 17.984 256 17.984 273.984 9.952 273.984.0 265.952-17.984 256-17.984zM128 416h256V32H128V416z"  /><glyph unicode="&#xe00d;" d="M495.488 96H480V384c0 17.664-14.336 32-32 32H64C46.336 416 32 401.664 32 384V96H16.512C7.392 96 0 88.832.0 80 0 71.168 7.392 64 16.512 64H64h384 47.488C504.608 64 512 71.168 512 80 512 88.832 504.608 96 495.488 96zM448 384V129.344H64V384H448z"  /><glyph unicode="&#xe00e;" d="M480 448H32C14.336 448 0 433.664.0 416V128c0-17.664 14.336-32 32-32h159.968c-.064-23.136-.992-53.184-9.76-64H175.744C167.04 32 160 24.832 160 16 160 7.168 167.04.0 175.744.0h160.48C344.96.0 352 7.168 352 16c0 8.832-7.04 16-15.744 16h-6.464c-8.8 10.816-9.696 40.864-9.76 64H480c17.664.0 32 14.336 32 32V416C512 433.664 497.664 448 480 448zM224 96l-.032-.064C223.968 95.968 223.968 95.968 224 96v0zM288.032 95.936 288 96h.032C288.032 95.968 288.032 95.968 288.032 95.936zM480 160H32V416h448V160z"  /><glyph unicode="&#xe00f;" d="M480 320h-64c0 0-18.496.0-32 32-6.88 16.288-14.336 32-32 32H224C206.336 384 198.656 368.384 192 352 179.008 320 160 320 160 320H128c0 17.664-14.336 32-32 32H64C46.336 352 32 337.664 32 320 14.336 320 0 305.664.0 288V32c0-17.664 14.336-32 32-32h448c17.664.0 32 14.336 32 32V164v28 96C512 305.664 497.664 320 480 320zm0-288H32v128h145.6c7.84-54.208 54.016-96 110.4-96 57.76.0 104.736 43.872 110.784 1e2H480V32zM208 176C208 220.128 243.904 256 288 256s80-35.872 80-80c0-44.096-35.904-80-80-80S208 131.904 208 176zM398.4 192C390.56 246.208 344.384 288 288 288s-102.56-41.792-110.4-96H32v96h32 32 64c18.688.0 46.08 13.6 61.632 51.968C224.288 346.464 226.08 350.048 227.264 352h121.344c2.144-3.52 4.896-10.016 5.92-12.448C375.232 290.496 409.376 288 416 288h64v-96H398.4zM64 239.68a16 16 1260 1 1 32 0 16 16 1260 1 1-32 0z"  /><glyph unicode="&#xe010;" d="M480 352H32C14.336 352 0 337.664.0 320V0c0-17.664 14.336-32 32-32h448c17.664.0 32 14.336 32 32V320C512 337.664 497.664 352 480 352zM181.76 127.136l74.304-50.496 73.856 50.848L457.376.0H54.624L181.76 127.136zM32 22.624V228.96l122.816-83.488L32 22.624zM356.704 145.92 480 230.784v-208.16L356.704 145.92zM480 320v-51.776l-.672.96-223.392-153.824L32 267.616V320H480z"  /><glyph unicode="&#xe011;" d="M399.456 160l-12.128 32h-34.24H158.912h-34.24l-12.128-32L64 32h384L399.456 160zM146.784 160h218.464l36.416-96H110.368l36.416 96zm182.048 96h34.24l-12.128 32L285.856 459.552C281.088 471.872 269.216 480 256 480S230.912 471.872 226.144 459.552L161.088 288 148.96 256h34.24H328.832zM256 448l60.672-160H195.328L256 448zM495.744.0H16.256C7.264.0.0-6.784.0-15.744S7.264-32 16.256-32h479.488C504.736-32 512-24.736 512-15.744S504.736.0 495.744.0z"  /><glyph unicode="&#xe012;" d="M83.744-29.568C87.712-31.2 91.872-32 96-32c8.32.0 16.512 3.264 22.624 9.376L256 114.752l137.376-137.376C399.488-28.736 407.68-32 416-32c4.128.0 8.288.8 12.224 2.432C440.192-24.608 448-12.928 448 0V448c0 17.664-14.336 32-32 32H96C78.336 480 64 465.664 64 448V0C64-12.928 71.808-24.608 83.744-29.568zM256 160 96 0V352h320V0L256 160zM416 448v-64H96v64H416z"  /><glyph unicode="&#xe013;" d="M96-32h320c17.664.0 32 14.336 32 32V352c0 17.664-14.336 32-32 32h-64.16C351.072 437.152 308.512 480 256 480S160.928 437.152 160.16 384H96C78.336 384 64 369.664 64 352V0C64-17.664 78.336-32 96-32zM416 352V0H96V352H416zM256 448c34.784.0 63.072-28.576 63.84-64H192.16C192.928 419.424 221.216 448 256 448zM208 288h96C312.832 288 320 295.168 320 304 320 312.832 312.832 320 304 320h-96C199.168 320 192 312.832 192 304 192 295.168 199.168 288 208 288z"  /><glyph unicode="&#xe014;" d="M480 416H32C14.336 416 0 401.664.0 384v-65.344V256 64c0-17.664 14.336-32 32-32h448c17.664.0 32 14.336 32 32V256 318.656 384C512 401.664 497.664 416 480 416zm0-352H32V256h448V64zM32 318.656V384h448v-65.344H32zM80 96h160C248.832 96 256 103.168 256 112 256 120.832 248.832 128 240 128H80C71.168 128 64 120.832 64 112 64 103.168 71.168 96 80 96zm208 16a16 16 1260 1 1 32 0 16 16 1260 1 1-32 0zm64 0a16 16 1260 1 1 32 0 16 16 1260 1 1-32 0zm64 0a16 16 1260 1 1 32 0 16 16 1260 1 1-32 0z"  /><glyph unicode="&#xe015;" d="M96 0a32 32 1260 1 1 64 0A32 32 1260 1 1 96 0zM384 0a32 32 1260 1 1 64 0 32 32 1260 1 1-64 0zM-.928 4e2c0-8.832 7.168-16 16-16H48.32l19.872-84.992L96 160c0-1.152.544-2.144.672-3.264l-16.288-73.28c-1.056-4.736.096-9.696 3.136-13.472C86.56 66.176 91.136 64 96 64h363.008c8.832.0 16 7.168 16 16s-7.168 16-16 16H115.968l7.328 32.96C124.896 128.704 126.336 128 128 128h291.68c17.664.0 28.32 3.488 36.832 24l51.968 159.424C517.504 340 497.696 352 480 352H96C93.504 352 91.328 351.136 88.992 350.592L76.576 403.648C74.88 410.88 68.448 416 60.992 416H15.072C6.208 416-.928 408.832-.928 4e2zM96.64 320h380.96l-51.072-156.768c-.608-1.376-1.12-2.368-1.504-3.04C423.968 160.096 422.304 160 419.68 160H128V163.168L127.392 166.272 96.64 320z"  /><glyph unicode="&#xe016;" d="M225.216 368.352C191.328 402.176 148.768 405.024 119.168 375.424 89.568 345.856 92.384 303.232 126.208 269.376l183.168-183.168c6.24-6.24 16.384-6.24 22.624.0s6.24 16.384.0 22.624L148.832 292c-16.416 16.416-26.88 40.992-7.072 60.8 19.776 19.808 44.384 9.312 60.8-7.104l203.648-203.616c58.4-58.464 72.96-85.408 38.176-120.224-35.2-35.168-72.512-26.464-128.704 29.696L89.44 277.856C52.896 314.4 27.296 374.08 75.328 422.08 132.352 479.104 197.472 423.04 216.032 404.448l207.872-207.904c6.24-6.24 16.384-6.24 22.624.0s6.24 16.384.0 22.624L238.656 427.072C175.808 489.92 104.544 496.64 52.672 444.704.256 392.32 5.92 316.16 66.816 255.232l226.272-226.272c19.232-19.232 60.416-60.384 107.776-60.384 21.28.0 43.84 8.352 66.176 30.688 63.584 63.616 4.768 122.496-38.176 165.472L225.216 368.352z"  /><glyph unicode="&#xe017;" d="M464.928 447.84c-.288.0-.576.0-.864.0-.256.0-.48.032-.736.0H262.144C257.248 447.616 246.112 439.968 244.672 438.528L9.344 203.2c-12.48-12.48-12.48-32.704.0-45.184l180.672-180.672C196.288-28.896 204.448-32 212.608-32c8.16.0 16.352 3.104 22.592 9.344l235.328 235.328C471.968 214.112 480 224 480 230.144V431.968C480.448 440.896 473.696 447.84 464.928 447.84zM448 236.128c-.48-.736-.96-1.504-1.408-2.112L212.64.0 31.968 180.576l234.016 234.016C266.624 415.04 267.36 415.52 268.128 416H448V236.128zM384 368a16 16 1260 1 1 32 0 16 16 1260 1 1-32 0z"  /><glyph unicode="&#xe018;" d="M465.28 480c-.192.0-.384.0-.576.0-.096.0-.192.0-.288.0-.032.0-.064.0-.096.0-.16.0-.288.0-.416.0-.064.0-.128.0-.192.0H294.496C289.6 479.744 278.464 472.096 277.024 470.656L73.344 267.008c-12.48-12.48-12.48-32.704.0-45.184l25.408-25.408L73.344 171.008c-12.48-12.48-12.48-32.704.0-45.184l148.672-148.672c6.24-6.24 14.4-9.344 22.592-9.344 8.16.0 16.352 3.104 22.592 9.344l203.648 203.68C472.32 182.272 480 192.128 480 198.272V464.096C480.448 473.024 474.048 480 465.28 480zM448.352 203.68c-.096-.16-.16-.256-.128-.256.0.0.0.0.0.0l-203.584-203.68-148.672 148.608 25.408 25.408 100.64-100.64c6.24-6.24 14.4-9.344 22.592-9.344 8.16.0 16.352 3.104 22.592 9.344l181.152 181.152V203.68zm0 148.32v-52.32c-.096-.16-.16-.256-.128-.256v0c0 0 0 0 0 0l-203.584-203.68L95.968 244.352l202.304 202.272C298.88 447.072 299.616 447.552 300.352 448h148V352zM384.352 400.128a16 16 1260 1 1 32 0 16 16 1260 1 1-32 0z"  /><glyph unicode="&#xe019;" d="M416 448h-64c0 17.664-14.336 32-32 32H224C206.336 480 192 465.664 192 448H128C110.336 448 96 433.664 96 416h352C448 433.664 433.664 448 416 448zM96 0c0-17.664 14.336-32 32-32h288c17.664.0 32 14.336 32 32V384H96V0zm32 352h288V0H128V352zm48-32C167.168 320 160 312.832 160 304V48C160 39.168 167.168 32 176 32S192 39.168 192 48v256C192 312.832 184.832 320 176 320zm96 0C263.168 320 256 312.832 256 304V48C256 39.168 263.168 32 272 32S288 39.168 288 48v256C288 312.832 280.832 320 272 320zm96 0C359.168 320 352 312.832 352 304V48c0-8.832 7.168-16 16-16s16 7.168 16 16v256C384 312.832 376.832 320 368 320z"  /><glyph unicode="&#xe01a;" d="M157.248 474.304C152.896 479.456 145.824 481.344 139.52 479.04 133.216 476.736 128.992 470.72 128.992 464v-417.504c0-6.912 4.416-13.024 10.976-15.2 1.632-.544 3.328-.8 5.024-.8 4.96.0 9.76 2.304 12.832 6.464l71.552 96.384 49.632-141.984c6.368-18.176 26.272-27.776 44.448-21.408s27.776 26.272 21.408 44.448l-48.704 139.296 111.936-21.664c6.688-1.344 13.408 1.76 16.832 7.584 3.424 5.856 2.816 13.216-1.568 18.4L157.248 474.304zM247.2 195.808C241.152 197.024 234.976 194.592 231.328 189.632l-70.304-94.72V420.128l208.768-248.064L247.2 195.808z"  /><glyph unicode="&#xe01b;" d="M224 67.072V0H176C167.168.0 160-7.168 160-16 160-24.832 167.168-32 176-32h79.68H256.32 336c8.832.0 16 7.168 16 16 0 8.832-7.168 16-16 16H288v67.264C354.656 80.416 416 134.368 416 224v48C416 280.832 408.832 288 4e2 288S384 280.832 384 272V224c0-84.032-64.416-128-128-128-61.664.0-128 40.064-128 128v48C128 280.832 120.832 288 112 288S96 280.832 96 272V224c0-90.88 60.256-144.192 128-156.928zM256 128c52.928.0 96 43.072 96 96V384c0 52.928-43.072 96-96 96-52.928.0-96-43.072-96-96V224c0-52.928 43.072-96 96-96zM192 384c0 35.36 28.64 64 64 64s64-28.64 64-64V224c0-35.36-28.64-64-64-64S192 188.64 192 224V384z"  /><glyph unicode="&#xe01c;" d="M256 480C114.624 480 0 365.376.0 224S114.624-32 256-32 512 82.624 512 224 397.376 480 256 480zM256 0c-123.52.0-224 100.48-224 224s100.48 224 224 224 224-100.48 224-224S379.52.0 256 0zM359.52 349.568 299.968 312.384 260.192 287.584c31.936-2.112 57.28-27.424 59.392-59.392l24.8 39.744 37.184 59.584c3.968 6.304 3.04 14.528-2.24 19.776C374.016 352.608 365.76 353.504 359.52 349.568zM192.416 219.808 167.616 180.032l-37.184-59.584c-3.968-6.304-3.04-14.528 2.24-19.776C135.776 97.6 139.872 96 144 96c2.944.0 5.888.8 8.48 2.432l59.552 37.184 39.776 24.8C219.872 162.528 194.528 187.872 192.416 219.808zM260.192 287.584C258.784 287.68 257.44 288 256 288 220.64 288 192 259.36 192 224c0-1.44.32-2.784.416-4.192 2.112-31.936 27.456-57.28 59.392-59.392C253.216 160.32 254.56 160 256 160c35.36.0 64 28.64 64 64 0 1.44-.32 2.784-.416 4.192C317.472 260.128 292.128 285.472 260.192 287.584zM224 224c0 17.632 14.368 32 32 32s32-14.368 32-32S273.632 192 256 192 224 206.368 224 224z"  /><glyph unicode="&#xe01d;" d="M243.392 217.216c45.984.0 83.392 37.408 83.392 83.392C326.784 346.592 289.376 384 243.392 384S160 346.592 160 300.608C160 254.624 197.408 217.216 243.392 217.216zm0 134.784c28.32.0 51.392-23.04 51.392-51.392s-23.04-51.392-51.392-51.392S192 272.288 192 300.608 215.04 352 243.392 352zM231.744-23.328c2.688-2.976 5.28-4.896 7.776-6.24.032-.032.096-.032.128-.064 1.728-.896 3.424-1.568 5.024-1.568 1.6.0 3.296.672 5.024 1.568.032.032.096.032.128.064 2.496 1.344 5.088 3.264 7.776 6.24.0.0 148.736 161.76 163.68 301.92.896 7.232 1.504 14.56 1.504 22.016C422.784 399.68 342.464 480 243.392 480S64 399.68 64 300.608c0-7.584.608-14.976 1.536-22.304C80.864 138.208 231.744-23.328 231.744-23.328zM243.392 448c81.28.0 147.392-66.112 147.392-147.392.0-5.408-.384-11.168-1.312-18.624-11.456-107.392-112.288-233.408-144.768-271.744-33.312 38.4-135.584 164.096-147.424 272C96.416 289.312 96 295.136 96 300.608 96 381.888 162.112 448 243.392 448z"  /><glyph unicode="&#xe01e;" d="M139.04 195.648C132.224 187.904 129.568 177.344 131.872 167.296c2.304-10.048 9.344-18.368 18.848-22.336 22.72-9.504 61.344-15.52 105.312-16.736C256.032 128.16 256 128.096 256 128V32c0-17.664 7.168-64 16-64s16 46.336 16 64v96c0 .096-.032.16-.032.256 43.968 1.184 82.592 7.232 105.312 16.736 9.504 3.968 16.544 12.288 18.848 22.336 2.304 10.048-.352 20.608-7.168 28.32C391.84 210.528 368.928 218.752 352 223.04v165.76.0c16.736 5.664 30.944 12.768 42.176 21.056 9.6 7.072 14.464 18.944 12.608 30.72s-10.112 21.568-21.44 25.376C369.728 471.2 334.208 480 272 480 206.24 480 169.92 469.856 157.344 465.504c-11.168-3.872-19.296-13.6-21.12-25.28C134.4 428.576 139.168 416.832 148.608 409.696 160 401.152 174.56 393.92 191.968 388.224H192V223.04C175.104 218.784 152.16 210.56 139.04 195.648zM201.952 418.624C185.248 424.096 174.4 430.336 167.84 435.296 184.864 441.184 219.328 448 272 448c51.648.0 85.856-6.56 103.2-12.384-6.784-4.992-17.536-11.104-33.472-16.512L320 411.744v-213.6l24.128-6.112c17.696-4.48 31.072-11.008 36.8-17.536C366.112 168.32 330.112 160 272 160S177.888 168.32 163.072 174.496c5.76 6.528 19.136 13.056 36.8 17.536L224 198.144V411.424L201.952 418.624z"  /><glyph unicode="&#xe01f;" d="M486.944 415.232l-144 64C340.672 479.744 338.336 480 336 480c-2.08.0-4.192-.192-6.24-.608L175.712 416.704 38.976 479.232C36.672 479.744 34.336 480 32 480 24.8 480 17.728 477.568 12 472.96 4.416 466.912.0 457.728.0 448V64c0-14.976 10.4-27.968 25.024-31.232l143.328-64C170.656-31.744 172.992-32 175.328-32c2.08.0 4.192.192 6.24.608l154.048 62.688 137.408-62.528C475.36-31.744 477.696-32 480-32c7.2.0 14.304 2.432 20.032 7.04C507.584-18.88 512-9.696 512 0V384C512 399.008 501.568 412 486.944 415.232zM192 390.624 320 441.6v-384l-128-50.976v384zM32 448l128-57.152v-384L32 64V448zM480 0 352 56.896v384L480 384V0z"  /><glyph unicode="&#xe020;" d="M404.992 448H104c-17.664.0-32-12-40-32L0 192.512V176v-33.664V16C0 7.168 7.168.0 16 0h480c8.832.0 16 7.168 16 16v127.872V176 190.528L448 416C439.008 436 422.688 448 404.992 448zM94.24 405.344C95.712 408.64 99.456 416 104 416h300.992c4.384.0 9.44-4.512 12.992-11.392L478.304 192H336C327.168 192 320 184.832 320 176V128H192v48C192 184.832 184.832 192 176 192H33.152L94.24 405.344zM480 32H32v111.552V160h128v-48C160 103.168 167.168 96 176 96h160c8.832.0 16 7.168 16 16v48h128v-15.36V32z"  /><glyph unicode="&#xe021;" d="M480 320H352c0-17.664-14.336-32-32-32h160v-64H320c17.664.0 32-14.336 32-32h128V0H32V192h128c0 17.664 14.336 32 32 32H32v64h160C174.336 288 160 302.336 160 320H32C14.336 320 0 305.664.0 288v-64-32V0c0-17.664 14.336-32 32-32h448c17.664.0 32 14.336 32 32V192v32 64C512 305.664 497.664 320 480 320zM192 288h128c17.664.0 32 14.336 32 32v32c0 17.664-14.336 32-32 32H192C174.336 384 160 369.664 160 352v-32C160 302.336 174.336 288 192 288zm0 64h128v-32H192v32zM160 192v-32c0-17.664 14.336-32 32-32h128c17.664.0 32 14.336 32 32v32c0 17.664-14.336 32-32 32H192C174.336 224 160 209.664 160 192zm160-32H192v32h128V160z"  /><glyph unicode="&#xe022;" d="M432.672 480H288.288 144 80.672C36.512 480 .768 444.512.128 400.512L0 400.672v-66.656V288 112.672 73.088 48.672C0 4.128 36.128-32 80.672-32h14.592H224h44 21.408 63.264C370.336-32 384-17.664 384 0V336C384 344.832 377.504 352 368.672 352h-288C53.824 352 32 372.512 32 399.328 32 426.176 53.824 448 80.672 448H144h149.12H416V80c0-8.832 7.84-16 16.672-16S448 71.168 448 80v384C448 472.832 441.504 480 432.672 480zm-352-160h271.36l.64-320H289.408 268 224 95.264 80.672C53.824.0 32 21.824 32 48.672v24.416 39.584V288 334.016 335.648C45.44 325.792 62.24 320 80.672 320z"  /><glyph unicode="&#xe023;" d="M510.112 390.016C506.08 403.04 494.368 412.672 480 412.672h-32v-32-17.664c0-26.464-21.536-48-48-48S352 336.544 352 363.008V380.672v32H159.84v-32-17.664c0-26.464-21.536-48-48-48-26.464.0-48 21.536-48 48V380.672v32H32c-14.368.0-26.08-9.632-30.112-22.656H0v-9.344-99.68V0c0-17.664 14.336-32 32-32h448c17.664.0 32 14.336 32 32V280.992v99.68V390.016H510.112zM480 0H32V256h448V0zM111.84 347.008c8.832.0 16 7.168 16 16V464c0 8.832-7.168 16-16 16s-16-7.168-16-16V363.008C95.84 354.176 103.008 347.008 111.84 347.008zM4e2 347.008c8.832.0 16 7.168 16 16V464C416 472.832 408.832 480 4e2 480S384 472.832 384 464V363.008C384 354.176 391.168 347.008 4e2 347.008z"  /><glyph unicode="&#xe024;" d="M480 480H32C14.336 480 0 465.664.0 448V0c0-17.664 14.336-32 32-32h448c17.664.0 32 14.336 32 32V448C512 465.664 497.664 480 480 480zM96 192v-64H32v64H96zM32 256v64h64v-64H32zm96-96h256V0H128V160zm256 32H128V448h256V192zm32 0h64v-64h-64v64zm0 64v64h64v-64H416zm0 128v64h64v-64H416zM96 384H32v64h64V384zM32 64h64V0H32V64zm384 0h64V0h-64V64z"  /><glyph unicode="&#xe025;" d="M511.456 417.664C510.048 434.144 496.736 448 480 448H32C15.264 448 1.952 434.144.544 417.664H0v-2.656V352 125.344 96 0c0-17.664 14.336-32 32-32h448c17.664.0 32 14.336 32 32V352 415.008 417.664H511.456zM192 256v96h128v-96H192zm128-32v-98.656H192V224H320zM160 352v-96H32v96H160zM32 224h128v-98.656H32V224zM32 0v96h128V0H32zM192 0v96h128V0H192zM480 0H352v96h128V0zm0 125.344H352V224h128V125.344zM480 256H352v96h128V256z"  /><glyph unicode="&#xe026;" d="M416 480H32C14.336 480 0 465.664.0 448V0c0-17.664 14.336-32 32-32h384c17.664.0 32 14.336 32 32V448C448 465.664 433.664 480 416 480zM32 448h64V0H32V448zM416 0H128V448h288V0zM221.792 308.256A48.448 48.448 1260 1 1 318.688 308.256 48.448 48.448 1260 1 1 221.792 308.256zM271.232 240.448C227.488 240.448 192 192.864 192 134.176s158.496-58.688 158.496.0S315.008 240.448 271.232 240.448zM480 448h32V352H480zm0-128h32V224H480zm0-128h32V96H480z"  /><glyph unicode="&#xe027;" d="M480 160v64c0 147.072-112.672 224-224 224C147.392 448 32 369.504 32 224v-64c-17.664.0-32-14.336-32-32V64c0-17.664 14.336-32 32-32 0-17.664 14.336-32 32-32s32 14.336 32 32v128c0 17.664-14.336 32-32 32v32c0 126.048 96.608 192 192 192 92.48.0 192-60.064 192-192v-32c-17.664.0-32-14.336-32-32V32c0-17.664 14.336-32 32-32s32 14.336 32 32c17.664.0 32 14.336 32 32v64C512 145.664 497.664 160 480 160z"  /><glyph unicode="&#xe028;" d="M256 480C190.496 480 124.96 455.008 74.976 405.024c-99.968-99.968-99.968-262.08.0-362.048C124.96-7.008 190.496-32 256-32s131.04 24.992 181.024 74.976c99.968 99.968 99.968 262.08.0 362.048C387.04 455.008 321.504 480 256 480zM165.504 133.504C141.312 157.664 128 189.824 128 224c0 34.176 13.312 66.336 37.504 90.496C189.664 338.688 221.824 352 256 352s66.336-13.312 90.496-37.504C370.688 290.336 384 258.176 384 224c0-34.176-13.312-66.336-37.504-90.496C322.336 109.312 290.176 96 256 96S189.664 109.312 165.504 133.504zM354.976 424.8 305.6 375.424C289.472 380.704 272.8 384 256 384 240.704 384 225.568 381.088 210.752 376.736l-49.92 49.92C190.272 440.448 222.528 448 256 448 290.944 448 324.544 439.84 354.976 424.8zM53.376 319.136l49.92-49.92c-9.152-31.04-8.768-64 1.28-94.848l-49.376-49.376C40.16 155.456 32 189.056 32 224 32 257.472 39.552 289.728 53.376 319.136zM97.6 65.632v0C97.6 65.6 97.6 65.6 97.6 65.632v0zM164.704 19.552l50.432 50.432C228.544 66.432 242.208 64 256 64c15.296.0 30.432 2.912 45.248 7.296l49.92-49.92C321.728 7.552 289.472.0 256 0 223.968.0 193.088 6.88 164.704 19.552zM458.56 128.928l-49.824 49.824c8.288 28.128 8.768 57.792 1.28 86.112l50.336 50.336C486.688 255.968 486.08 187.744 458.56 128.928z"  /><glyph unicode="&#xe029;" d="M256-32c82.528.0 155.744 39.232 202.56 99.872L256 224V480C114.624 480 0 365.376.0 224S114.624-32 256-32zM224 445.728V224c0-9.92 4.608-19.296 12.448-25.344l175.424-135.232C370.304 22.784 314.976.0 256 0c-123.52.0-224 100.48-224 224C32 336.64 115.584 430.144 224 445.728zM3e2 475.712v-228.96l182.784-140.896C501.344 141.216 512 181.312 512 224 512 350.336 420.352 454.816 3e2 475.712z"  /><glyph unicode="&#xe02a;" d="M479.584 480c-17.92.0-32.416-14.528-32.416-32.416V372C410.624 416.256 368.512 480 252.608 480 113.344 480 0 366.688.0 227.392c0-139.296 113.344-252.608 252.608-252.608 109.376.0 205.824 69.856 240.064 173.824 5.664 17.312-3.744 35.968-21.056 41.664-17.312 5.696-35.968-3.712-41.664-21.024-25.28-76.832-96.544-128.448-177.344-128.448-102.912.0-186.624 83.712-186.624 186.624s83.712 186.24 186.624 186.24c72.864.0 113.344-45.344 146.368-92.896H317.472c-17.92.0-32.416-14.528-32.416-32.416.0-17.92 14.528-32.416 32.416-32.416h162.112C497.472 255.872 512 270.4 512 288.288V447.584C512 465.472 497.472 480 479.584 480z"  /><glyph unicode="&#xe02b;" d="M152.928 415.104c18.72 18.72 49.152 18.72 67.872.0l171.616-171.616c8.448 31.968.544 67.36-24.512 92.416L254.752 449.024c-37.504 37.504-98.272 37.504-135.776.0L93.536 423.584c-37.504-37.504-37.504-98.272.0-135.776l113.152-113.152c25.056-25.056 60.448-32.96 92.416-24.512L127.488 321.76c-18.72 18.72-18.72 49.152.0 67.872L152.928 415.104zM257.248-1.024c37.504-37.504 98.272-37.504 135.776.0l25.44 25.472c37.504 37.504 37.504 98.272.0 135.776L305.312 273.312c-25.056 25.056-60.448 32.96-92.416 24.512l171.616-171.616c18.72-18.72 18.72-49.152.0-67.872l-25.472-25.472c-18.72-18.72-49.152-18.72-67.872.0L119.584 204.512c-8.448-31.968-.544-67.36 24.512-92.416L257.248-1.024z"  /><glyph unicode="&#xe02c;" d="M120.64 227.68c20.448-20.448 50.528-27.616 77.888-19.456L47.36 359.36C42.432 364.288 39.84 371.424 39.84 379.936c0 14.08 7.36 32.064 17.12 41.824 12.8 12.8 47.52 26.976 63.68 10.912l151.136-151.168c2.208 7.392 3.328 15.072 3.328 22.752.0 20.864-8.096 40.416-22.784 55.136L149.824 461.856C119.04 492.64 57.856 481.088 27.744 450.976 10.272 433.504-.576 406.432-.576 380.32c0-20.288 6.656-38.112 18.72-50.176L120.64 227.68zM391.36 220.32c-20.448 20.448-50.528 27.616-77.888 19.456l151.168-151.168c4.928-4.928 7.52-12.032 7.52-20.576.0-14.08-7.36-32.064-17.12-41.824-12.8-12.8-47.52-26.976-63.68-10.912L240.224 166.496c-2.208-7.392-3.328-15.072-3.328-22.752.0-20.864 8.096-40.416 22.784-55.136l102.464-102.464c30.784-30.784 91.968-19.232 122.08 10.88 17.472 17.472 28.32 44.544 28.32 70.656.0 20.288-6.656 38.112-18.72 50.176L391.36 220.32zM146.624 333.408C142.528 329.344 140.288 323.904 140.288 318.144s2.24-11.168 6.304-15.232l188.288-188.32c8.416-8.384 22.08-8.384 30.496.0 4.096 4.064 6.304 9.504 6.304 15.264s-2.24 11.168-6.304 15.232L177.088 333.408C168.704 341.792 155.008 341.792 146.624 333.408z"  /><glyph unicode="&#xe02d;" d="M432.32 114.88A2.912 2.912 1260 1 1 438.144 114.88 2.912 2.912 1260 1 1 432.32 114.88zM368.032 48.544A5.792 5.792 1260 1 1 379.616 48.54399999999998a5.792 5.792 1260 1 1-11.584000000000003.0zM281.376 14.4A8.704 8.704 1260 1 1 298.784 14.399999999999977a8.704 8.704 1260 1 1-17.408000000000015.0zM188.096 18.976A11.584 11.584 1260 1 1 211.264 18.976 11.584 11.584 1260 1 1 188.096 18.976zM105.344 61.44A14.496 14.496 1260 1 1 134.336 61.44 14.496 14.496 1260 1 1 105.344 61.44zM48.032 133.632a17.408 17.408 1260 1 1 34.816.0 17.408 17.408 1260 1 1-34.816.0zM26.528 222.272a20.288 20.288 1260 1 1 40.576.0 20.288 20.288 1260 1 1-40.576.0zM44.224 310.336a23.2 23.2 1260 1 1 46.4.0 23.2 23.2 1260 1 1-46.4.0zM97.312 381.344A26.112 26.112 1260 1 1 149.536 381.344 26.112 26.112 1260 1 1 97.312 381.344zM175.264 422.016A28.992 28.992 1260 1 1 233.248 422.016 28.992 28.992 1260 1 1 175.264 422.016zM262.816 424.544A31.904 31.904 1260 1 1 326.624 424.544 31.904 31.904 1260 1 1 262.816 424.544zM342.976 388.48A34.784 34.784 1260 1 1 412.544 388.48 34.784 34.784 1260 1 1 342.976 388.48zM399.936 320.736a37.696 37.696 1260 1 1 75.392.0 37.696 37.696 1260 1 1-75.392.0zM422.592 232.992A40.608 40.608 1260 1 1 503.808 232.992 40.608 40.608 1260 1 1 422.592 232.992z"  /><glyph unicode="&#xe02e;" d="M256 480C114.624 480 0 365.376.0 224S114.624-32 256-32 512 82.624 512 224 397.376 480 256 480zm0-64c105.856.0 192-86.144 192-192 0-41.408-13.312-79.68-35.68-111.072L144.928 380.32C176.32 402.688 214.592 416 256 416zM64 224c0 41.408 13.312 79.68 35.68 111.072L367.072 67.68v0C335.648 45.312 297.408 32 256 32 150.144 32 64 118.144 64 224z"  /><glyph unicode="&#xe02f;" d="M480 416H32C14.336 416 0 401.664.0 384v-64h512v64C512 401.664 497.664 416 480 416zm0-64H32v32h448V352zM32 0c0-17.664 14.336-32 32-32h384c17.664.0 32 14.336 32 32V288H32V0zM64 256h384V0H64V256zm272-32H176C167.168 224 160 216.832 160 208 160 199.168 167.168 192 176 192h160C344.832 192 352 199.168 352 208 352 216.832 344.832 224 336 224z"  /><glyph unicode="&#xe030;" d="M511.744 258.656C510.4 337.184 446.688 407.168 368 407.168c-45.504.0-85.6-23.808-112-58.752C229.6 383.36 189.504 407.168 144 407.168c-78.688.0-142.4-69.984-143.744-148.512H0c0-.48.096-.928.096-1.408C.096 256.896.0 256.544.0 256.16c0-2.208.544-3.872.64-5.984C7.68 50.048 253.984-32 253.984-32s249.92 81.952 257.312 281.856C511.424 252.096 512 253.856 512 256.16c0 .384-.096.736-.096 1.088C511.904 257.76 512 258.176 512 258.656H511.744zM479.328 251.04c-5.664-153.6-181.056-231.68-225.28-248.928-43.84 17.28-216.032 95.008-221.44 249.536C32.544 253.248 32.384 254.72 32.16 256.32c.032.576.064 1.184.096 1.792C33.344 321.568 84.512 375.168 144 375.168c32.832.0 64.352-16.768 86.464-46.048C236.512 321.12 245.952 316.416 256 316.416s19.488 4.704 25.536 12.704C303.648 358.4 335.168 375.168 368 375.168c59.488.0 110.656-53.6 111.744-117.056.0-.608.032-1.216.096-1.824C479.616 254.72 479.424 253.056 479.328 251.04z"  /><glyph unicode="&#xe031;" d="M510.144 272.864c-3.776 11.584-13.792 20.032-25.824 21.792l-137.92 20.032L284.704 439.648C279.296 450.592 268.192 457.504 256 457.504S232.704 450.592 227.296 439.648L165.632 314.688l-137.92-20.032c-12.064-1.76-22.08-10.208-25.824-21.792-3.776-11.584-.64-24.288 8.096-32.8l99.808-97.28-23.552-137.376c-2.048-12 2.88-24.128 12.736-31.296C104.512-29.952 111.104-32 117.76-32c5.088.0 10.208 1.216 14.88 3.68L256 36.544l123.36-64.864C384.032-30.784 389.152-32 394.24-32c6.624.0 13.248 2.048 18.816 6.112 9.856 7.168 14.784 19.296 12.736 31.296l-23.552 137.376 99.808 97.28C510.752 248.544 513.888 261.28 510.144 272.864zM367.84 153.952 394.24.0 256 72.672 117.76.0l26.4 153.952L32.32 262.976 186.88 285.44 256 425.504l69.12-140.064 154.56-22.464L367.84 153.952z"  /><glyph unicode="&#xe032;" d="M510.144 272.864c-3.776 11.584-13.792 20.032-25.856 21.76l-137.92 20.032L284.704 439.648C279.296 450.592 268.192 457.504 256 457.504S232.704 450.592 227.296 439.648L165.632 314.688l-137.92-20.032c-12.064-1.76-22.08-10.208-25.824-21.792-3.776-11.584-.64-24.288 8.096-32.8l99.808-97.28-23.552-137.376c-2.048-12 2.88-24.128 12.736-31.296C104.512-29.952 111.104-32 117.76-32c5.088.0 10.208 1.216 14.88 3.68L256 36.544l123.36-64.864C384.032-30.784 389.152-32 394.24-32c6.624.0 13.248 2.048 18.816 6.112 9.856 7.168 14.784 19.296 12.736 31.296l-23.552 137.376 99.808 97.28C510.784 248.576 513.92 261.28 510.144 272.864zM367.84 153.952 394.24.0 256 72.672V425.504l69.12-140.064 154.56-22.464L367.84 153.952z"  /><glyph unicode="&#xe033;" d="M332.096 291.712l-78.4 158.848-78.4-158.848L0 266.24 126.848 142.592 96.896-32l156.8 82.432L410.496-32 380.544 142.592 507.392 266.24z"  /><glyph unicode="&#xe034;" d="M256 50.432V450.56L177.6 291.712 2.304 266.24 129.152 142.592 99.2-32z"  /><glyph unicode="&#xe035;" d="M13.568 49.44c-18.752-18.752-18.752-49.12.0-67.872 9.376-9.376 21.664-14.048 33.952-14.048 12.288.0 24.576 4.672 33.952 14.048l157.6 157.6L171.168 207.04 13.568 49.44zM407.456 341.536 476.032 377.024 512 446.496 478.496 480 409.024 444.032 373.536 375.456l-83.584-83.584L323.872 257.952zM422.464 159.36C420.288 159.488 418.208 160 416 160c-11.712.0-22.816-2.4-33.184-6.24L185.76 350.816C189.6 361.184 192 372.288 192 384c0 2.208-.512 4.288-.64 6.464C187.968 440.416 146.816 480 96 480 81.216 480 67.36 476.384 54.848 470.4l63.776-63.776c3.36-3.36 5.664-7.328 7.2-11.52 4.192-11.36 1.92-24.576-7.2-33.728C112.384 355.136 104.192 352 96 352 92.224 352 88.48 352.832 84.896 354.176c-4.192 1.568-8.16 3.84-11.52 7.2L9.6 425.152C3.616 412.64.0 398.784.0 384c0-50.816 39.584-91.968 89.536-95.36C91.712 288.512 93.792 288 96 288c11.712.0 22.816 2.4 33.184 6.24L326.24 97.184C322.4 86.816 320 75.712 320 64c0-2.208.512-4.288.64-6.464C324.032 7.584 365.184-32 416-32c14.784.0 28.64 3.616 41.152 9.6l-63.776 63.776c-3.36 3.36-5.664 7.328-7.2 11.52-4.192 11.36-1.92 24.576 7.2 33.728C399.616 92.864 407.808 96 416 96c3.776.0 7.52-.832 11.104-2.176 4.192-1.568 8.16-3.84 11.52-7.2l63.776-63.776C508.384 35.36 512 49.216 512 64 512 114.816 472.416 155.968 422.464 159.36z"  /><glyph unicode="&#xe036;" d="M416 96c3.776.0 7.52-.832 11.104-2.176 4.192-1.568 8.16-3.84 11.52-7.2l63.776-63.776C508.384 35.36 512 49.216 512 64c0 50.816-39.584 91.968-89.536 95.36C420.288 159.488 418.208 160 416 160c-11.712.0-22.816-2.4-33.184-6.24L185.76 350.816C189.6 361.184 192 372.288 192 384c0 2.208-.512 4.288-.64 6.464C187.968 440.416 146.816 480 96 480 81.216 480 67.36 476.384 54.848 470.4l63.776-63.776c3.36-3.36 5.664-7.328 7.2-11.52 4.192-11.36 1.92-24.576-7.2-33.728C112.384 355.136 104.192 352 96 352 92.224 352 88.48 352.832 84.896 354.176c-4.192 1.568-8.16 3.84-11.52 7.2L9.6 425.152C3.616 412.64.0 398.784.0 384c0-50.816 39.584-91.968 89.536-95.36C91.712 288.512 93.792 288 96 288c11.712.0 22.816 2.4 33.184 6.24L326.24 97.184C322.4 86.816 320 75.712 320 64c0-2.208.512-4.288.64-6.464C324.032 7.584 365.184-32 416-32c14.784.0 28.64 3.616 41.152 9.6l-63.776 63.776c-3.36 3.36-5.664 7.328-7.2 11.52-4.192 11.36-1.92 24.576 7.2 33.728C399.616 92.864 407.808 96 416 96z"  /><glyph unicode="&#xe037;" d="M440.416 277.088c-4.032 14.016-9.504 27.36-16.448 39.872l31.808 66.912c-11.808 14.72-25.184 28.096-39.904 39.904l-66.912-31.808c-12.48 6.912-25.856 12.416-39.872 16.448L284.192 478.368C274.944 479.392 265.536 480 256 480S237.056 479.392 227.808 478.368L202.912 408.416C188.928 404.384 175.552 398.88 163.072 391.968L96.128 423.776c-14.72-11.808-28.096-25.184-39.904-39.904l31.808-66.912c-6.912-12.48-12.416-25.856-16.448-39.872L1.632 252.192C.608 242.944.0 233.536.0 224s.608-18.944 1.632-28.192l69.984-24.896c4.032-14.016 9.504-27.36 16.448-39.872l-31.808-66.912c11.808-14.72 25.184-28.128 39.904-39.904l66.912 31.808c12.48-6.912 25.856-12.416 39.872-16.448l24.896-69.984C237.056-31.392 246.464-32 256-32s18.944.608 28.192 1.632l24.896 69.984c14.016 4.032 27.36 9.504 39.872 16.448l66.912-31.808c14.72 11.808 28.128 25.184 39.904 39.904l-31.808 66.912c6.912 12.48 12.416 25.856 16.448 39.872l69.984 24.896C511.392 205.056 512 214.464 512 224s-.608 18.944-1.632 28.192L440.416 277.088zM256 96c-70.688.0-128 57.312-128 128 0 70.688 57.312 128 128 128s128-57.312 128-128C384 153.312 326.688 96 256 96zM192 224a64 64 1260 1 1 128 0 64 64 1260 1 1-128 0z"  /><glyph unicode="&#xe038;" d="M15.648 204.832l55.52 2.048C77.728 198.368 85.312 190.624 93.76 183.712l-3.648-55.584c6.08-3.456 12.352-6.656 18.944-9.504 6.56-2.848 13.216-5.184 19.904-7.264l37.92 40.8c10.848-1.376 21.664-1.568 32.32-.512l36.64-41.792c13.664 3.744 26.848 8.992 39.328 15.648L273.152 181.056C281.632 187.616 289.376 195.2 296.288 203.648L351.872 2e2c3.456 6.08 6.656 12.352 9.504 18.944 2.848 6.56 5.184 13.216 7.264 19.904l-40.8 37.92c1.376 10.848 1.568 21.664.512 32.32l41.792 36.64c-3.744 13.664-8.992 26.848-15.648 39.328L298.944 383.04C292.384 391.52 284.8 399.264 276.352 406.176L280 461.76C273.92 465.216 267.648 468.416 261.056 471.264 254.496 474.08 247.84 476.448 241.152 478.496L203.264 437.696c-10.848 1.376-21.664 1.568-32.32.512L134.272 480C120.608 476.256 107.424 471.008 94.944 464.352L96.96 408.832C88.48 402.272 80.736 394.72 73.824 386.272L18.24 389.888c-3.456-6.08-6.656-12.352-9.504-18.944C5.92 364.384 3.552 357.728 1.504 351.04l40.8-37.92c-1.376-10.848-1.568-21.664-.512-32.32L0 244.16C3.744 230.528 8.992 217.312 15.648 204.832zM223.072 383.104c48.672-20.992 71.136-77.472 50.144-126.176S195.744 185.792 147.04 206.784 75.904 284.256 96.896 332.96 174.368 404.096 223.072 383.104zM137.056 294.944a48 48 1260 1 1 96-5684341886080802e-29 48 48 1260 1 1-96 0zM480.672 103.232l-13.248 4.704 6.048 12.736 13.92 29.28c-5.152 6.432-11.008 12.288-17.472 17.472l-29.28-13.92-12.736-6.048-4.704 13.248-10.88 30.624C408.288 191.744 404.16 192 4e2 192s-8.288-.256-12.352-.704l-10.88-30.624-4.704-13.248-12.736 6.048-29.28 13.92c-6.432-5.152-12.288-11.008-17.472-17.472l13.92-29.28 6.048-12.736-13.248-4.704-30.624-10.88C288.256 88.288 288 84.16 288 80s.256-8.288.704-12.32l30.624-10.88 13.248-4.704-6.048-12.736-13.92-29.28c5.152-6.432 11.008-12.288 17.472-17.472l29.28 13.92 12.736 6.048 4.704-13.248 10.88-30.624C391.712-31.744 395.84-32 4e2-32s8.288.256 12.352.704l10.88 30.624 4.704 13.248 12.736-6.048 29.28-13.92c6.432 5.152 12.288 11.008 17.472 17.472l-13.92 29.28-6.048 12.736 13.248 4.704 30.624 10.88C511.744 71.712 512 75.84 512 80s-.256 8.288-.704 12.352L480.672 103.232zM4e2 56c-13.248.0-24 10.752-24 24 0 13.248 10.752 24 24 24s24-10.752 24-24C424 66.752 413.248 56 4e2 56z"  /><glyph unicode="&#xe039;" d="M272 448C139.456 448 32 340.544 32 208S139.456-32 272-32 512 75.456 512 208 404.544 448 272 448zM379.328 228.672c-6.24-6.24-16.384-6.24-22.624.0L288 297.376V48C288 39.168 280.832 32 272 32S256 39.168 256 48V297.376L187.328 228.672c-6.24-6.24-16.384-6.24-22.624.0-6.24 6.24-6.24 16.384.0 22.624l96 96C260.736 347.36 260.768 347.36 260.8 347.392c1.44 1.408 3.168 2.592 5.056 3.36 3.904 1.632 8.32 1.632 12.224.0C280.064 349.952 281.824 348.8 283.328 347.328l96-96C385.568 245.056 385.568 234.944 379.328 228.672z"  /><glyph unicode="&#xe03a;" d="M272 448C139.456 448 32 340.544 32 208S139.456-32 272-32 512 75.456 512 208 404.544 448 272 448zM379.328 164.672l-96-96c-1.472-1.472-3.232-2.656-5.184-3.456-3.904-1.632-8.32-1.632-12.224.0-1.92.8-3.616 1.952-5.056 3.36-.032.032-.096.032-.128.096l-96 96c-6.24 6.24-6.24 16.384.0 22.624 6.24 6.24 16.384 6.24 22.624.0L256 118.624V368C256 376.832 263.168 384 272 384S288 376.832 288 368V118.624l68.672 68.672c6.24 6.24 16.384 6.24 22.624.0C385.568 181.056 385.568 170.944 379.328 164.672z"  /></font>
</defs>
</svg>
